<?xml version="1.0" encoding="utf-8" standalone="no"?>
<!DOCTYPE svg PUBLIC "-//W3C//DTD SVG 1.1//EN"
  "http://www.w3.org/Graphics/SVG/1.1/DTD/svg11.dtd">
<!-- Created with matplotlib (https://matplotlib.org/) -->
<svg height="345.6pt" version="1.1" viewBox="0 0 460.8 345.6" width="460.8pt" xmlns="http://www.w3.org/2000/svg" xmlns:xlink="http://www.w3.org/1999/xlink">
 <defs>
  <style type="text/css">
*{stroke-linecap:butt;stroke-linejoin:round;}
  </style>
 </defs>
 <g id="figure_1">
  <g id="patch_1">
   <path d="M 0 345.6 
L 460.8 345.6 
L 460.8 0 
L 0 0 
z
" style="fill:#ffffff;"/>
  </g>
  <g id="axes_1">
   <g id="patch_2">
    <path d="M 57.6 307.584 
L 414.72 307.584 
L 414.72 41.472 
L 57.6 41.472 
z
" style="fill:#ffffff;"/>
   </g>
   <g id="matplotlib.axis_1">
    <g id="xtick_1">
     <g id="line2d_1">
      <defs>
       <path d="M 0 0 
L 0 3.5 
" id="m28717f18e2" style="stroke:#000000;stroke-width:0.8;"/>
      </defs>
      <g>
       <use style="stroke:#000000;stroke-width:0.8;" x="73.832727" xlink:href="#m28717f18e2" y="307.584"/>
      </g>
     </g>
     <g id="text_1">
      <!-- 0 -->
      <defs>
       <path d="M 31.78125 66.40625 
Q 24.171875 66.40625 20.328125 58.90625 
Q 16.5 51.421875 16.5 36.375 
Q 16.5 21.390625 20.328125 13.890625 
Q 24.171875 6.390625 31.78125 6.390625 
Q 39.453125 6.390625 43.28125 13.890625 
Q 47.125 21.390625 47.125 36.375 
Q 47.125 51.421875 43.28125 58.90625 
Q 39.453125 66.40625 31.78125 66.40625 
z
M 31.78125 74.21875 
Q 44.046875 74.21875 50.515625 64.515625 
Q 56.984375 54.828125 56.984375 36.375 
Q 56.984375 17.96875 50.515625 8.265625 
Q 44.046875 -1.421875 31.78125 -1.421875 
Q 19.53125 -1.421875 13.0625 8.265625 
Q 6.59375 17.96875 6.59375 36.375 
Q 6.59375 54.828125 13.0625 64.515625 
Q 19.53125 74.21875 31.78125 74.21875 
z
" id="DejaVuSans-48"/>
      </defs>
      <g transform="translate(70.651477 322.182437)scale(0.1 -0.1)">
       <use xlink:href="#DejaVuSans-48"/>
      </g>
     </g>
    </g>
    <g id="xtick_2">
     <g id="line2d_2">
      <g>
       <use style="stroke:#000000;stroke-width:0.8;" x="114.434847" xlink:href="#m28717f18e2" y="307.584"/>
      </g>
     </g>
     <g id="text_2">
      <!-- 250 -->
      <defs>
       <path d="M 19.1875 8.296875 
L 53.609375 8.296875 
L 53.609375 0 
L 7.328125 0 
L 7.328125 8.296875 
Q 12.9375 14.109375 22.625 23.890625 
Q 32.328125 33.6875 34.8125 36.53125 
Q 39.546875 41.84375 41.421875 45.53125 
Q 43.3125 49.21875 43.3125 52.78125 
Q 43.3125 58.59375 39.234375 62.25 
Q 35.15625 65.921875 28.609375 65.921875 
Q 23.96875 65.921875 18.8125 64.3125 
Q 13.671875 62.703125 7.8125 59.421875 
L 7.8125 69.390625 
Q 13.765625 71.78125 18.9375 73 
Q 24.125 74.21875 28.421875 74.21875 
Q 39.75 74.21875 46.484375 68.546875 
Q 53.21875 62.890625 53.21875 53.421875 
Q 53.21875 48.921875 51.53125 44.890625 
Q 49.859375 40.875 45.40625 35.40625 
Q 44.1875 33.984375 37.640625 27.21875 
Q 31.109375 20.453125 19.1875 8.296875 
z
" id="DejaVuSans-50"/>
       <path d="M 10.796875 72.90625 
L 49.515625 72.90625 
L 49.515625 64.59375 
L 19.828125 64.59375 
L 19.828125 46.734375 
Q 21.96875 47.46875 24.109375 47.828125 
Q 26.265625 48.1875 28.421875 48.1875 
Q 40.625 48.1875 47.75 41.5 
Q 54.890625 34.8125 54.890625 23.390625 
Q 54.890625 11.625 47.5625 5.09375 
Q 40.234375 -1.421875 26.90625 -1.421875 
Q 22.3125 -1.421875 17.546875 -0.640625 
Q 12.796875 0.140625 7.71875 1.703125 
L 7.71875 11.625 
Q 12.109375 9.234375 16.796875 8.0625 
Q 21.484375 6.890625 26.703125 6.890625 
Q 35.15625 6.890625 40.078125 11.328125 
Q 45.015625 15.765625 45.015625 23.390625 
Q 45.015625 31 40.078125 35.4375 
Q 35.15625 39.890625 26.703125 39.890625 
Q 22.75 39.890625 18.8125 39.015625 
Q 14.890625 38.140625 10.796875 36.28125 
z
" id="DejaVuSans-53"/>
      </defs>
      <g transform="translate(104.891097 322.182437)scale(0.1 -0.1)">
       <use xlink:href="#DejaVuSans-50"/>
       <use x="63.623047" xlink:href="#DejaVuSans-53"/>
       <use x="127.246094" xlink:href="#DejaVuSans-48"/>
      </g>
     </g>
    </g>
    <g id="xtick_3">
     <g id="line2d_3">
      <g>
       <use style="stroke:#000000;stroke-width:0.8;" x="155.036966" xlink:href="#m28717f18e2" y="307.584"/>
      </g>
     </g>
     <g id="text_3">
      <!-- 500 -->
      <g transform="translate(145.493216 322.182437)scale(0.1 -0.1)">
       <use xlink:href="#DejaVuSans-53"/>
       <use x="63.623047" xlink:href="#DejaVuSans-48"/>
       <use x="127.246094" xlink:href="#DejaVuSans-48"/>
      </g>
     </g>
    </g>
    <g id="xtick_4">
     <g id="line2d_4">
      <g>
       <use style="stroke:#000000;stroke-width:0.8;" x="195.639085" xlink:href="#m28717f18e2" y="307.584"/>
      </g>
     </g>
     <g id="text_4">
      <!-- 750 -->
      <defs>
       <path d="M 8.203125 72.90625 
L 55.078125 72.90625 
L 55.078125 68.703125 
L 28.609375 0 
L 18.3125 0 
L 43.21875 64.59375 
L 8.203125 64.59375 
z
" id="DejaVuSans-55"/>
      </defs>
      <g transform="translate(186.095335 322.182437)scale(0.1 -0.1)">
       <use xlink:href="#DejaVuSans-55"/>
       <use x="63.623047" xlink:href="#DejaVuSans-53"/>
       <use x="127.246094" xlink:href="#DejaVuSans-48"/>
      </g>
     </g>
    </g>
    <g id="xtick_5">
     <g id="line2d_5">
      <g>
       <use style="stroke:#000000;stroke-width:0.8;" x="236.241204" xlink:href="#m28717f18e2" y="307.584"/>
      </g>
     </g>
     <g id="text_5">
      <!-- 1000 -->
      <defs>
       <path d="M 12.40625 8.296875 
L 28.515625 8.296875 
L 28.515625 63.921875 
L 10.984375 60.40625 
L 10.984375 69.390625 
L 28.421875 72.90625 
L 38.28125 72.90625 
L 38.28125 8.296875 
L 54.390625 8.296875 
L 54.390625 0 
L 12.40625 0 
z
" id="DejaVuSans-49"/>
      </defs>
      <g transform="translate(223.516204 322.182437)scale(0.1 -0.1)">
       <use xlink:href="#DejaVuSans-49"/>
       <use x="63.623047" xlink:href="#DejaVuSans-48"/>
       <use x="127.246094" xlink:href="#DejaVuSans-48"/>
       <use x="190.869141" xlink:href="#DejaVuSans-48"/>
      </g>
     </g>
    </g>
    <g id="xtick_6">
     <g id="line2d_6">
      <g>
       <use style="stroke:#000000;stroke-width:0.8;" x="276.843323" xlink:href="#m28717f18e2" y="307.584"/>
      </g>
     </g>
     <g id="text_6">
      <!-- 1250 -->
      <g transform="translate(264.118323 322.182437)scale(0.1 -0.1)">
       <use xlink:href="#DejaVuSans-49"/>
       <use x="63.623047" xlink:href="#DejaVuSans-50"/>
       <use x="127.246094" xlink:href="#DejaVuSans-53"/>
       <use x="190.869141" xlink:href="#DejaVuSans-48"/>
      </g>
     </g>
    </g>
    <g id="xtick_7">
     <g id="line2d_7">
      <g>
       <use style="stroke:#000000;stroke-width:0.8;" x="317.445443" xlink:href="#m28717f18e2" y="307.584"/>
      </g>
     </g>
     <g id="text_7">
      <!-- 1500 -->
      <g transform="translate(304.720443 322.182437)scale(0.1 -0.1)">
       <use xlink:href="#DejaVuSans-49"/>
       <use x="63.623047" xlink:href="#DejaVuSans-53"/>
       <use x="127.246094" xlink:href="#DejaVuSans-48"/>
       <use x="190.869141" xlink:href="#DejaVuSans-48"/>
      </g>
     </g>
    </g>
    <g id="xtick_8">
     <g id="line2d_8">
      <g>
       <use style="stroke:#000000;stroke-width:0.8;" x="358.047562" xlink:href="#m28717f18e2" y="307.584"/>
      </g>
     </g>
     <g id="text_8">
      <!-- 1750 -->
      <g transform="translate(345.322562 322.182437)scale(0.1 -0.1)">
       <use xlink:href="#DejaVuSans-49"/>
       <use x="63.623047" xlink:href="#DejaVuSans-55"/>
       <use x="127.246094" xlink:href="#DejaVuSans-53"/>
       <use x="190.869141" xlink:href="#DejaVuSans-48"/>
      </g>
     </g>
    </g>
    <g id="xtick_9">
     <g id="line2d_9">
      <g>
       <use style="stroke:#000000;stroke-width:0.8;" x="398.649681" xlink:href="#m28717f18e2" y="307.584"/>
      </g>
     </g>
     <g id="text_9">
      <!-- 2000 -->
      <g transform="translate(385.924681 322.182437)scale(0.1 -0.1)">
       <use xlink:href="#DejaVuSans-50"/>
       <use x="63.623047" xlink:href="#DejaVuSans-48"/>
       <use x="127.246094" xlink:href="#DejaVuSans-48"/>
       <use x="190.869141" xlink:href="#DejaVuSans-48"/>
      </g>
     </g>
    </g>
    <g id="text_10">
     <!-- No of Iterations -->
     <defs>
      <path d="M 9.8125 72.90625 
L 23.09375 72.90625 
L 55.421875 11.921875 
L 55.421875 72.90625 
L 64.984375 72.90625 
L 64.984375 0 
L 51.703125 0 
L 19.390625 60.984375 
L 19.390625 0 
L 9.8125 0 
z
" id="DejaVuSans-78"/>
      <path d="M 30.609375 48.390625 
Q 23.390625 48.390625 19.1875 42.75 
Q 14.984375 37.109375 14.984375 27.296875 
Q 14.984375 17.484375 19.15625 11.84375 
Q 23.34375 6.203125 30.609375 6.203125 
Q 37.796875 6.203125 41.984375 11.859375 
Q 46.1875 17.53125 46.1875 27.296875 
Q 46.1875 37.015625 41.984375 42.703125 
Q 37.796875 48.390625 30.609375 48.390625 
z
M 30.609375 56 
Q 42.328125 56 49.015625 48.375 
Q 55.71875 40.765625 55.71875 27.296875 
Q 55.71875 13.875 49.015625 6.21875 
Q 42.328125 -1.421875 30.609375 -1.421875 
Q 18.84375 -1.421875 12.171875 6.21875 
Q 5.515625 13.875 5.515625 27.296875 
Q 5.515625 40.765625 12.171875 48.375 
Q 18.84375 56 30.609375 56 
z
" id="DejaVuSans-111"/>
      <path id="DejaVuSans-32"/>
      <path d="M 37.109375 75.984375 
L 37.109375 68.5 
L 28.515625 68.5 
Q 23.6875 68.5 21.796875 66.546875 
Q 19.921875 64.59375 19.921875 59.515625 
L 19.921875 54.6875 
L 34.71875 54.6875 
L 34.71875 47.703125 
L 19.921875 47.703125 
L 19.921875 0 
L 10.890625 0 
L 10.890625 47.703125 
L 2.296875 47.703125 
L 2.296875 54.6875 
L 10.890625 54.6875 
L 10.890625 58.5 
Q 10.890625 67.625 15.140625 71.796875 
Q 19.390625 75.984375 28.609375 75.984375 
z
" id="DejaVuSans-102"/>
      <path d="M 9.8125 72.90625 
L 19.671875 72.90625 
L 19.671875 0 
L 9.8125 0 
z
" id="DejaVuSans-73"/>
      <path d="M 18.3125 70.21875 
L 18.3125 54.6875 
L 36.8125 54.6875 
L 36.8125 47.703125 
L 18.3125 47.703125 
L 18.3125 18.015625 
Q 18.3125 11.328125 20.140625 9.421875 
Q 21.96875 7.515625 27.59375 7.515625 
L 36.8125 7.515625 
L 36.8125 0 
L 27.59375 0 
Q 17.1875 0 13.234375 3.875 
Q 9.28125 7.765625 9.28125 18.015625 
L 9.28125 47.703125 
L 2.6875 47.703125 
L 2.6875 54.6875 
L 9.28125 54.6875 
L 9.28125 70.21875 
z
" id="DejaVuSans-116"/>
      <path d="M 56.203125 29.59375 
L 56.203125 25.203125 
L 14.890625 25.203125 
Q 15.484375 15.921875 20.484375 11.0625 
Q 25.484375 6.203125 34.421875 6.203125 
Q 39.59375 6.203125 44.453125 7.46875 
Q 49.3125 8.734375 54.109375 11.28125 
L 54.109375 2.78125 
Q 49.265625 0.734375 44.1875 -0.34375 
Q 39.109375 -1.421875 33.890625 -1.421875 
Q 20.796875 -1.421875 13.15625 6.1875 
Q 5.515625 13.8125 5.515625 26.8125 
Q 5.515625 40.234375 12.765625 48.109375 
Q 20.015625 56 32.328125 56 
Q 43.359375 56 49.78125 48.890625 
Q 56.203125 41.796875 56.203125 29.59375 
z
M 47.21875 32.234375 
Q 47.125 39.59375 43.09375 43.984375 
Q 39.0625 48.390625 32.421875 48.390625 
Q 24.90625 48.390625 20.390625 44.140625 
Q 15.875 39.890625 15.1875 32.171875 
z
" id="DejaVuSans-101"/>
      <path d="M 41.109375 46.296875 
Q 39.59375 47.171875 37.8125 47.578125 
Q 36.03125 48 33.890625 48 
Q 26.265625 48 22.1875 43.046875 
Q 18.109375 38.09375 18.109375 28.8125 
L 18.109375 0 
L 9.078125 0 
L 9.078125 54.6875 
L 18.109375 54.6875 
L 18.109375 46.1875 
Q 20.953125 51.171875 25.484375 53.578125 
Q 30.03125 56 36.53125 56 
Q 37.453125 56 38.578125 55.875 
Q 39.703125 55.765625 41.0625 55.515625 
z
" id="DejaVuSans-114"/>
      <path d="M 34.28125 27.484375 
Q 23.390625 27.484375 19.1875 25 
Q 14.984375 22.515625 14.984375 16.5 
Q 14.984375 11.71875 18.140625 8.90625 
Q 21.296875 6.109375 26.703125 6.109375 
Q 34.1875 6.109375 38.703125 11.40625 
Q 43.21875 16.703125 43.21875 25.484375 
L 43.21875 27.484375 
z
M 52.203125 31.203125 
L 52.203125 0 
L 43.21875 0 
L 43.21875 8.296875 
Q 40.140625 3.328125 35.546875 0.953125 
Q 30.953125 -1.421875 24.3125 -1.421875 
Q 15.921875 -1.421875 10.953125 3.296875 
Q 6 8.015625 6 15.921875 
Q 6 25.140625 12.171875 29.828125 
Q 18.359375 34.515625 30.609375 34.515625 
L 43.21875 34.515625 
L 43.21875 35.40625 
Q 43.21875 41.609375 39.140625 45 
Q 35.0625 48.390625 27.6875 48.390625 
Q 23 48.390625 18.546875 47.265625 
Q 14.109375 46.140625 10.015625 43.890625 
L 10.015625 52.203125 
Q 14.9375 54.109375 19.578125 55.046875 
Q 24.21875 56 28.609375 56 
Q 40.484375 56 46.34375 49.84375 
Q 52.203125 43.703125 52.203125 31.203125 
z
" id="DejaVuSans-97"/>
      <path d="M 9.421875 54.6875 
L 18.40625 54.6875 
L 18.40625 0 
L 9.421875 0 
z
M 9.421875 75.984375 
L 18.40625 75.984375 
L 18.40625 64.59375 
L 9.421875 64.59375 
z
" id="DejaVuSans-105"/>
      <path d="M 54.890625 33.015625 
L 54.890625 0 
L 45.90625 0 
L 45.90625 32.71875 
Q 45.90625 40.484375 42.875 44.328125 
Q 39.84375 48.1875 33.796875 48.1875 
Q 26.515625 48.1875 22.3125 43.546875 
Q 18.109375 38.921875 18.109375 30.90625 
L 18.109375 0 
L 9.078125 0 
L 9.078125 54.6875 
L 18.109375 54.6875 
L 18.109375 46.1875 
Q 21.34375 51.125 25.703125 53.5625 
Q 30.078125 56 35.796875 56 
Q 45.21875 56 50.046875 50.171875 
Q 54.890625 44.34375 54.890625 33.015625 
z
" id="DejaVuSans-110"/>
      <path d="M 44.28125 53.078125 
L 44.28125 44.578125 
Q 40.484375 46.53125 36.375 47.5 
Q 32.28125 48.484375 27.875 48.484375 
Q 21.1875 48.484375 17.84375 46.4375 
Q 14.5 44.390625 14.5 40.28125 
Q 14.5 37.15625 16.890625 35.375 
Q 19.28125 33.59375 26.515625 31.984375 
L 29.59375 31.296875 
Q 39.15625 29.25 43.1875 25.515625 
Q 47.21875 21.78125 47.21875 15.09375 
Q 47.21875 7.46875 41.1875 3.015625 
Q 35.15625 -1.421875 24.609375 -1.421875 
Q 20.21875 -1.421875 15.453125 -0.5625 
Q 10.6875 0.296875 5.421875 2 
L 5.421875 11.28125 
Q 10.40625 8.6875 15.234375 7.390625 
Q 20.0625 6.109375 24.8125 6.109375 
Q 31.15625 6.109375 34.5625 8.28125 
Q 37.984375 10.453125 37.984375 14.40625 
Q 37.984375 18.0625 35.515625 20.015625 
Q 33.0625 21.96875 24.703125 23.78125 
L 21.578125 24.515625 
Q 13.234375 26.265625 9.515625 29.90625 
Q 5.8125 33.546875 5.8125 39.890625 
Q 5.8125 47.609375 11.28125 51.796875 
Q 16.75 56 26.8125 56 
Q 31.78125 56 36.171875 55.265625 
Q 40.578125 54.546875 44.28125 53.078125 
z
" id="DejaVuSans-115"/>
     </defs>
     <g transform="translate(197.549062 335.860562)scale(0.1 -0.1)">
      <use xlink:href="#DejaVuSans-78"/>
      <use x="74.804688" xlink:href="#DejaVuSans-111"/>
      <use x="135.986328" xlink:href="#DejaVuSans-32"/>
      <use x="167.773438" xlink:href="#DejaVuSans-111"/>
      <use x="228.955078" xlink:href="#DejaVuSans-102"/>
      <use x="264.160156" xlink:href="#DejaVuSans-32"/>
      <use x="295.947266" xlink:href="#DejaVuSans-73"/>
      <use x="325.439453" xlink:href="#DejaVuSans-116"/>
      <use x="364.648438" xlink:href="#DejaVuSans-101"/>
      <use x="426.171875" xlink:href="#DejaVuSans-114"/>
      <use x="467.285156" xlink:href="#DejaVuSans-97"/>
      <use x="528.564453" xlink:href="#DejaVuSans-116"/>
      <use x="567.773438" xlink:href="#DejaVuSans-105"/>
      <use x="595.556641" xlink:href="#DejaVuSans-111"/>
      <use x="656.738281" xlink:href="#DejaVuSans-110"/>
      <use x="720.117188" xlink:href="#DejaVuSans-115"/>
     </g>
    </g>
   </g>
   <g id="matplotlib.axis_2">
    <g id="ytick_1">
     <g id="line2d_10">
      <defs>
       <path d="M 0 0 
L -3.5 0 
" id="m8d24025ac2" style="stroke:#000000;stroke-width:0.8;"/>
      </defs>
      <g>
       <use style="stroke:#000000;stroke-width:0.8;" x="57.6" xlink:href="#m8d24025ac2" y="305.568"/>
      </g>
     </g>
     <g id="text_11">
      <!-- 0 -->
      <g transform="translate(44.2375 309.367219)scale(0.1 -0.1)">
       <use xlink:href="#DejaVuSans-48"/>
      </g>
     </g>
    </g>
    <g id="ytick_2">
     <g id="line2d_11">
      <g>
       <use style="stroke:#000000;stroke-width:0.8;" x="57.6" xlink:href="#m8d24025ac2" y="274.068"/>
      </g>
     </g>
     <g id="text_12">
      <!-- 25 -->
      <g transform="translate(37.875 277.867219)scale(0.1 -0.1)">
       <use xlink:href="#DejaVuSans-50"/>
       <use x="63.623047" xlink:href="#DejaVuSans-53"/>
      </g>
     </g>
    </g>
    <g id="ytick_3">
     <g id="line2d_12">
      <g>
       <use style="stroke:#000000;stroke-width:0.8;" x="57.6" xlink:href="#m8d24025ac2" y="242.568"/>
      </g>
     </g>
     <g id="text_13">
      <!-- 50 -->
      <g transform="translate(37.875 246.367219)scale(0.1 -0.1)">
       <use xlink:href="#DejaVuSans-53"/>
       <use x="63.623047" xlink:href="#DejaVuSans-48"/>
      </g>
     </g>
    </g>
    <g id="ytick_4">
     <g id="line2d_13">
      <g>
       <use style="stroke:#000000;stroke-width:0.8;" x="57.6" xlink:href="#m8d24025ac2" y="211.068"/>
      </g>
     </g>
     <g id="text_14">
      <!-- 75 -->
      <g transform="translate(37.875 214.867219)scale(0.1 -0.1)">
       <use xlink:href="#DejaVuSans-55"/>
       <use x="63.623047" xlink:href="#DejaVuSans-53"/>
      </g>
     </g>
    </g>
    <g id="ytick_5">
     <g id="line2d_14">
      <g>
       <use style="stroke:#000000;stroke-width:0.8;" x="57.6" xlink:href="#m8d24025ac2" y="179.568"/>
      </g>
     </g>
     <g id="text_15">
      <!-- 100 -->
      <g transform="translate(31.5125 183.367219)scale(0.1 -0.1)">
       <use xlink:href="#DejaVuSans-49"/>
       <use x="63.623047" xlink:href="#DejaVuSans-48"/>
       <use x="127.246094" xlink:href="#DejaVuSans-48"/>
      </g>
     </g>
    </g>
    <g id="ytick_6">
     <g id="line2d_15">
      <g>
       <use style="stroke:#000000;stroke-width:0.8;" x="57.6" xlink:href="#m8d24025ac2" y="148.068"/>
      </g>
     </g>
     <g id="text_16">
      <!-- 125 -->
      <g transform="translate(31.5125 151.867219)scale(0.1 -0.1)">
       <use xlink:href="#DejaVuSans-49"/>
       <use x="63.623047" xlink:href="#DejaVuSans-50"/>
       <use x="127.246094" xlink:href="#DejaVuSans-53"/>
      </g>
     </g>
    </g>
    <g id="ytick_7">
     <g id="line2d_16">
      <g>
       <use style="stroke:#000000;stroke-width:0.8;" x="57.6" xlink:href="#m8d24025ac2" y="116.568"/>
      </g>
     </g>
     <g id="text_17">
      <!-- 150 -->
      <g transform="translate(31.5125 120.367219)scale(0.1 -0.1)">
       <use xlink:href="#DejaVuSans-49"/>
       <use x="63.623047" xlink:href="#DejaVuSans-53"/>
       <use x="127.246094" xlink:href="#DejaVuSans-48"/>
      </g>
     </g>
    </g>
    <g id="ytick_8">
     <g id="line2d_17">
      <g>
       <use style="stroke:#000000;stroke-width:0.8;" x="57.6" xlink:href="#m8d24025ac2" y="85.068"/>
      </g>
     </g>
     <g id="text_18">
      <!-- 175 -->
      <g transform="translate(31.5125 88.867219)scale(0.1 -0.1)">
       <use xlink:href="#DejaVuSans-49"/>
       <use x="63.623047" xlink:href="#DejaVuSans-55"/>
       <use x="127.246094" xlink:href="#DejaVuSans-53"/>
      </g>
     </g>
    </g>
    <g id="ytick_9">
     <g id="line2d_18">
      <g>
       <use style="stroke:#000000;stroke-width:0.8;" x="57.6" xlink:href="#m8d24025ac2" y="53.568"/>
      </g>
     </g>
     <g id="text_19">
      <!-- 200 -->
      <g transform="translate(31.5125 57.367219)scale(0.1 -0.1)">
       <use xlink:href="#DejaVuSans-50"/>
       <use x="63.623047" xlink:href="#DejaVuSans-48"/>
       <use x="127.246094" xlink:href="#DejaVuSans-48"/>
      </g>
     </g>
    </g>
    <g id="text_20">
     <!-- Reward -->
     <defs>
      <path d="M 44.390625 34.1875 
Q 47.5625 33.109375 50.5625 29.59375 
Q 53.5625 26.078125 56.59375 19.921875 
L 66.609375 0 
L 56 0 
L 46.6875 18.703125 
Q 43.0625 26.03125 39.671875 28.421875 
Q 36.28125 30.8125 30.421875 30.8125 
L 19.671875 30.8125 
L 19.671875 0 
L 9.8125 0 
L 9.8125 72.90625 
L 32.078125 72.90625 
Q 44.578125 72.90625 50.734375 67.671875 
Q 56.890625 62.453125 56.890625 51.90625 
Q 56.890625 45.015625 53.6875 40.46875 
Q 50.484375 35.9375 44.390625 34.1875 
z
M 19.671875 64.796875 
L 19.671875 38.921875 
L 32.078125 38.921875 
Q 39.203125 38.921875 42.84375 42.21875 
Q 46.484375 45.515625 46.484375 51.90625 
Q 46.484375 58.296875 42.84375 61.546875 
Q 39.203125 64.796875 32.078125 64.796875 
z
" id="DejaVuSans-82"/>
      <path d="M 4.203125 54.6875 
L 13.1875 54.6875 
L 24.421875 12.015625 
L 35.59375 54.6875 
L 46.1875 54.6875 
L 57.421875 12.015625 
L 68.609375 54.6875 
L 77.59375 54.6875 
L 63.28125 0 
L 52.6875 0 
L 40.921875 44.828125 
L 29.109375 0 
L 18.5 0 
z
" id="DejaVuSans-119"/>
      <path d="M 45.40625 46.390625 
L 45.40625 75.984375 
L 54.390625 75.984375 
L 54.390625 0 
L 45.40625 0 
L 45.40625 8.203125 
Q 42.578125 3.328125 38.25 0.953125 
Q 33.9375 -1.421875 27.875 -1.421875 
Q 17.96875 -1.421875 11.734375 6.484375 
Q 5.515625 14.40625 5.515625 27.296875 
Q 5.515625 40.1875 11.734375 48.09375 
Q 17.96875 56 27.875 56 
Q 33.9375 56 38.25 53.625 
Q 42.578125 51.265625 45.40625 46.390625 
z
M 14.796875 27.296875 
Q 14.796875 17.390625 18.875 11.75 
Q 22.953125 6.109375 30.078125 6.109375 
Q 37.203125 6.109375 41.296875 11.75 
Q 45.40625 17.390625 45.40625 27.296875 
Q 45.40625 37.203125 41.296875 42.84375 
Q 37.203125 48.484375 30.078125 48.484375 
Q 22.953125 48.484375 18.875 42.84375 
Q 14.796875 37.203125 14.796875 27.296875 
z
" id="DejaVuSans-100"/>
     </defs>
     <g transform="translate(25.432812 193.457687)rotate(-90)scale(0.1 -0.1)">
      <use xlink:href="#DejaVuSans-82"/>
      <use x="69.419922" xlink:href="#DejaVuSans-101"/>
      <use x="130.943359" xlink:href="#DejaVuSans-119"/>
      <use x="212.730469" xlink:href="#DejaVuSans-97"/>
      <use x="274.009766" xlink:href="#DejaVuSans-114"/>
      <use x="315.107422" xlink:href="#DejaVuSans-100"/>
     </g>
    </g>
   </g>
   <g id="line2d_19">
    <path clip-path="url(#p525f1192a5)" d="M 73.832727 290.448 
L 73.995136 284.148 
L 74.157544 294.228 
L 74.319953 261.468 
L 74.482361 292.968 
L 74.64477 275.328 
L 74.807178 291.708 
L 74.969587 291.708 
L 75.131995 277.848 
L 75.294404 294.228 
L 75.619221 286.668 
L 75.781629 285.408 
L 75.944037 285.408 
L 76.106446 292.968 
L 76.268854 290.448 
L 76.431263 291.708 
L 76.593671 294.228 
L 76.75608 290.448 
L 76.918488 290.448 
L 77.080897 289.188 
L 77.243305 289.188 
L 77.405714 292.968 
L 77.568122 286.668 
L 77.730531 285.408 
L 77.892939 294.228 
L 78.055348 294.228 
L 78.217756 291.708 
L 78.380165 294.228 
L 78.542573 286.668 
L 78.704982 287.928 
L 78.86739 286.668 
L 79.192207 292.968 
L 79.354615 287.928 
L 79.517024 286.668 
L 79.679432 292.968 
L 79.841841 294.228 
L 80.004249 286.668 
L 80.166658 294.228 
L 80.329066 294.228 
L 80.491475 287.928 
L 80.816292 295.488 
L 80.9787 294.228 
L 81.141109 294.228 
L 81.303517 291.708 
L 81.465926 292.968 
L 81.628334 291.708 
L 81.790743 292.968 
L 81.953151 290.448 
L 82.11556 295.488 
L 82.277968 292.968 
L 82.440377 294.228 
L 82.765194 290.448 
L 82.927602 294.228 
L 83.09001 294.228 
L 83.252419 292.968 
L 83.414827 292.968 
L 83.577236 290.448 
L 83.739644 294.228 
L 83.902053 290.448 
L 84.064461 294.228 
L 84.389278 294.228 
L 84.551687 292.968 
L 84.714095 292.968 
L 84.876504 294.228 
L 85.201321 291.708 
L 85.363729 294.228 
L 85.526138 292.968 
L 85.688546 294.228 
L 86.175772 294.228 
L 86.33818 292.968 
L 86.500588 292.968 
L 86.662997 294.228 
L 86.825405 292.968 
L 87.312631 292.968 
L 87.475039 295.488 
L 87.799856 292.968 
L 87.962265 294.228 
L 88.124673 291.708 
L 88.287082 294.228 
L 88.611899 294.228 
L 88.774307 295.488 
L 88.936716 294.228 
L 89.423941 294.228 
L 89.58635 292.968 
L 89.748758 294.228 
L 89.911166 292.968 
L 90.073575 292.968 
L 90.235983 290.448 
L 90.398392 290.448 
L 90.5608 295.488 
L 90.723209 294.228 
L 90.885617 295.488 
L 91.210434 291.708 
L 91.372843 294.228 
L 91.69766 291.708 
L 91.860068 294.228 
L 92.022477 292.968 
L 92.184885 292.968 
L 92.347294 291.708 
L 92.509702 289.188 
L 92.672111 292.968 
L 92.834519 290.448 
L 92.996928 290.448 
L 93.159336 294.228 
L 93.484153 294.228 
L 93.646561 290.448 
L 93.971378 294.228 
L 94.133787 292.968 
L 94.296195 289.188 
L 94.458604 292.968 
L 94.621012 291.708 
L 94.783421 291.708 
L 94.945829 294.228 
L 95.108238 294.228 
L 95.270646 290.448 
L 95.433055 294.228 
L 95.595463 294.228 
L 95.757872 291.708 
L 95.92028 294.228 
L 96.245097 289.188 
L 96.569914 294.228 
L 96.732323 295.488 
L 96.894731 292.968 
L 97.057139 294.228 
L 97.219548 291.708 
L 97.381956 292.968 
L 97.544365 289.188 
L 97.869182 291.708 
L 98.03159 294.228 
L 98.193999 292.968 
L 98.356407 292.968 
L 98.518816 294.228 
L 98.681224 294.228 
L 98.843633 291.708 
L 99.006041 294.228 
L 99.16845 294.228 
L 99.330858 292.968 
L 99.493267 294.228 
L 99.655675 292.968 
L 99.818084 295.488 
L 100.142901 290.448 
L 100.305309 294.228 
L 100.467717 286.668 
L 100.630126 292.968 
L 100.792534 294.228 
L 100.954943 294.228 
L 101.117351 286.668 
L 101.27976 291.708 
L 101.442168 290.448 
L 101.604577 294.228 
L 101.766985 292.968 
L 101.929394 292.968 
L 102.091802 290.448 
L 102.254211 290.448 
L 102.416619 291.708 
L 102.741436 281.628 
L 102.903845 292.968 
L 103.066253 292.968 
L 103.39107 282.888 
L 103.878296 291.708 
L 104.203112 286.668 
L 104.527929 290.448 
L 104.690338 286.668 
L 104.852746 277.848 
L 105.177563 290.448 
L 105.339972 292.968 
L 105.50238 279.108 
L 105.664789 290.448 
L 105.827197 261.468 
L 105.989606 290.448 
L 106.152014 266.508 
L 106.314423 295.488 
L 106.476831 252.648 
L 106.63924 280.368 
L 106.801648 285.408 
L 106.964057 284.148 
L 107.126465 240.048 
L 107.288874 276.588 
L 107.776099 260.208 
L 107.938507 237.528 
L 108.100916 261.468 
L 108.263324 251.388 
L 108.425733 263.988 
L 108.588141 263.988 
L 108.75055 250.128 
L 108.912958 255.168 
L 109.075367 250.128 
L 109.237775 257.688 
L 109.400184 218.628 
L 109.562592 272.808 
L 109.725001 246.348 
L 110.212226 282.888 
L 110.537043 251.388 
L 110.699452 286.668 
L 110.86186 263.988 
L 111.186677 281.628 
L 111.349085 276.588 
L 111.673902 282.888 
L 111.836311 270.288 
L 111.998719 267.768 
L 112.161128 272.808 
L 112.323536 274.068 
L 112.485945 279.108 
L 112.97317 269.028 
L 113.135579 246.348 
L 113.297987 272.808 
L 113.460396 248.868 
L 113.785213 274.068 
L 114.11003 256.428 
L 114.272438 260.208 
L 114.434847 255.168 
L 114.597255 253.908 
L 114.759663 256.428 
L 114.922072 198.468 
L 115.08448 257.688 
L 115.246889 204.768 
L 115.409297 198.468 
L 115.571706 261.468 
L 115.734114 149.328 
L 115.896523 231.228 
L 116.22134 137.988 
L 116.383748 253.908 
L 116.546157 204.768 
L 116.708565 270.288 
L 116.870974 221.148 
L 117.033382 240.048 
L 117.195791 289.188 
L 117.520608 213.588 
L 117.683016 222.408 
L 118.007833 285.408 
L 118.170241 204.768 
L 118.33265 241.308 
L 118.495058 185.868 
L 118.657467 267.768 
L 118.982284 221.148 
L 119.307101 251.388 
L 119.469509 240.048 
L 119.631918 240.048 
L 119.794326 272.808 
L 119.956735 246.348 
L 120.119143 184.608 
L 120.281552 247.608 
L 120.44396 236.268 
L 120.606369 253.908 
L 120.768777 204.768 
L 120.931186 203.508 
L 121.093594 53.568 
L 121.256003 241.308 
L 121.418411 229.968 
L 121.58082 275.328 
L 121.905636 190.908 
L 122.068045 203.508 
L 122.230453 271.548 
L 122.392862 267.768 
L 122.717679 177.048 
L 122.880087 270.288 
L 123.042496 67.428 
L 123.367313 261.468 
L 123.529721 53.568 
L 123.69213 53.568 
L 123.854538 198.468 
L 124.016947 53.568 
L 125.316214 53.568 
L 125.478623 115.308 
L 125.80344 122.868 
L 125.965848 146.808 
L 126.128257 135.468 
L 126.453074 179.568 
L 126.615482 143.028 
L 126.777891 153.108 
L 126.940299 146.808 
L 127.102708 163.188 
L 127.265116 125.388 
L 127.427525 169.488 
L 127.752342 137.988 
L 127.91475 137.988 
L 128.239567 71.208 
L 128.564384 53.568 
L 129.863652 53.568 
L 130.02606 107.748 
L 130.188469 53.568 
L 130.513286 53.568 
L 130.675694 110.268 
L 130.838103 53.568 
L 131.000511 204.768 
L 131.16292 53.568 
L 132.137371 53.568 
L 132.299779 169.488 
L 132.462187 53.568 
L 132.624596 53.568 
L 132.787004 235.008 
L 132.949413 53.568 
L 133.111821 53.568 
L 133.27423 126.648 
L 133.436638 53.568 
L 133.599047 53.568 
L 133.761455 218.628 
L 133.923864 53.568 
L 134.898315 53.568 
L 135.060723 184.608 
L 135.223132 53.568 
L 135.38554 102.708 
L 135.547949 107.748 
L 135.710357 107.748 
L 135.872765 106.488 
L 136.035174 173.268 
L 136.197582 86.328 
L 136.359991 172.008 
L 136.522399 53.568 
L 139.283343 53.568 
L 139.445752 179.568 
L 139.60816 53.568 
L 139.770569 53.568 
L 140.257794 184.608 
L 140.420203 184.608 
L 140.582611 197.208 
L 140.74502 193.428 
L 140.907428 174.528 
L 141.069837 182.088 
L 141.232245 197.208 
L 141.394654 179.568 
L 141.557062 247.608 
L 141.719471 174.528 
L 141.881879 170.748 
L 142.044288 177.048 
L 142.206696 258.948 
L 142.369105 187.128 
L 142.531513 256.428 
L 143.181147 235.008 
L 143.343555 252.648 
L 143.505964 253.908 
L 143.668372 235.008 
L 143.830781 250.128 
L 143.993189 248.868 
L 144.155598 243.828 
L 144.318006 242.568 
L 144.480415 243.828 
L 144.642823 258.948 
L 144.805232 241.308 
L 145.292457 262.728 
L 145.454866 258.948 
L 145.617274 240.048 
L 145.779683 248.868 
L 145.942091 245.088 
L 146.1045 246.348 
L 146.266908 245.088 
L 146.429316 251.388 
L 146.591725 248.868 
L 146.754133 258.948 
L 146.916542 261.468 
L 147.07895 251.388 
L 147.241359 252.648 
L 147.403767 241.308 
L 147.566176 240.048 
L 147.728584 252.648 
L 147.890993 235.008 
L 148.053401 243.828 
L 148.21581 258.948 
L 148.540627 247.608 
L 148.865444 265.248 
L 149.027852 252.648 
L 149.352669 189.648 
L 149.515078 242.568 
L 149.677486 174.528 
L 149.839894 238.788 
L 150.002303 166.968 
L 150.164711 169.488 
L 150.32712 174.528 
L 150.651937 163.188 
L 150.814345 170.748 
L 150.976754 154.368 
L 151.139162 164.448 
L 151.301571 166.968 
L 151.463979 174.528 
L 151.626388 168.228 
L 151.788796 153.108 
L 151.951205 150.588 
L 152.113613 160.668 
L 152.276022 161.928 
L 152.600839 143.028 
L 152.763247 53.568 
L 152.925656 144.288 
L 153.088064 143.028 
L 153.250473 163.188 
L 153.412881 53.568 
L 153.575289 135.468 
L 153.737698 124.128 
L 153.900106 53.568 
L 167.217602 53.568 
L 167.38001 124.128 
L 167.704827 131.688 
L 168.192052 163.188 
L 168.354461 163.188 
L 168.679278 151.848 
L 168.841686 169.488 
L 169.004095 169.488 
L 169.166503 155.628 
L 169.328912 165.708 
L 169.49132 158.148 
L 169.653729 161.928 
L 169.978546 183.348 
L 170.140954 169.488 
L 170.465771 180.828 
L 170.62818 179.568 
L 170.790588 179.568 
L 170.952996 175.788 
L 171.115405 183.348 
L 171.277813 178.308 
L 171.60263 178.308 
L 171.765039 184.608 
L 171.927447 177.048 
L 172.089856 179.568 
L 172.252264 175.788 
L 172.414673 253.908 
L 172.577081 175.788 
L 172.73949 189.648 
L 172.901898 269.028 
L 173.064307 175.788 
L 173.226715 174.528 
L 173.389124 165.708 
L 173.713941 173.268 
L 173.876349 173.268 
L 174.038758 178.308 
L 174.201166 178.308 
L 174.363575 165.708 
L 174.525983 170.748 
L 174.688391 172.008 
L 174.8508 170.748 
L 175.013208 166.968 
L 175.175617 170.748 
L 175.662842 170.748 
L 175.825251 183.348 
L 176.150068 172.008 
L 176.312476 182.088 
L 176.474885 263.988 
L 176.637293 262.728 
L 176.799702 188.388 
L 176.96211 252.648 
L 177.124519 183.348 
L 177.286927 188.388 
L 177.449336 265.248 
L 177.774153 250.128 
L 177.936561 260.208 
L 178.098969 190.908 
L 178.261378 274.068 
L 178.423786 258.948 
L 178.586195 262.728 
L 178.748603 248.868 
L 178.911012 271.548 
L 179.07342 223.668 
L 179.235829 265.248 
L 179.398237 256.428 
L 179.723054 265.248 
L 179.885463 256.428 
L 180.047871 260.208 
L 180.21028 233.748 
L 180.372688 246.348 
L 180.535097 241.308 
L 180.697505 256.428 
L 180.859914 257.688 
L 181.022322 242.568 
L 181.184731 258.948 
L 181.347139 183.348 
L 181.509548 246.348 
L 181.671956 190.908 
L 181.834364 252.648 
L 181.996773 250.128 
L 182.159181 241.308 
L 182.32159 185.868 
L 182.483998 247.608 
L 182.646407 173.268 
L 182.808815 178.308 
L 182.971224 241.308 
L 183.133632 174.528 
L 183.296041 180.828 
L 183.458449 178.308 
L 183.620858 184.608 
L 183.783266 174.528 
L 184.108083 174.528 
L 184.4329 168.228 
L 184.595309 169.488 
L 184.757717 172.008 
L 184.920126 166.968 
L 185.082534 177.048 
L 185.244942 175.788 
L 185.407351 170.748 
L 185.569759 174.528 
L 185.732168 185.868 
L 185.894576 166.968 
L 186.056985 172.008 
L 186.219393 172.008 
L 186.381802 168.228 
L 186.706619 184.608 
L 186.869027 179.568 
L 187.031436 169.488 
L 187.193844 169.488 
L 187.518661 179.568 
L 187.68107 183.348 
L 187.843478 183.348 
L 188.005887 173.268 
L 188.168295 184.608 
L 188.330704 248.868 
L 188.493112 182.088 
L 188.65552 182.088 
L 188.817929 185.868 
L 189.142746 173.268 
L 189.305154 174.528 
L 189.467563 169.488 
L 189.629971 175.788 
L 189.79238 173.268 
L 189.954788 178.308 
L 190.117197 173.268 
L 190.279605 184.608 
L 190.442014 184.608 
L 190.604422 179.568 
L 190.766831 178.308 
L 190.929239 172.008 
L 191.091648 180.828 
L 191.254056 169.488 
L 191.578873 180.828 
L 191.741282 173.268 
L 191.90369 173.268 
L 192.066099 161.928 
L 192.390915 172.008 
L 192.553324 180.828 
L 192.715732 170.748 
L 193.202958 161.928 
L 193.365366 175.788 
L 193.527775 177.048 
L 193.690183 175.788 
L 193.852592 163.188 
L 194.015 169.488 
L 194.177409 160.668 
L 194.502226 173.268 
L 194.664634 174.528 
L 194.827043 168.228 
L 194.989451 172.008 
L 195.314268 154.368 
L 195.639085 165.708 
L 195.801493 170.748 
L 195.963902 170.748 
L 196.12631 182.088 
L 196.451127 159.408 
L 196.775944 170.748 
L 197.100761 178.308 
L 197.26317 168.228 
L 197.425578 168.228 
L 197.587987 165.708 
L 197.750395 172.008 
L 197.912804 158.148 
L 198.075212 177.048 
L 198.237621 169.488 
L 198.400029 170.748 
L 198.562438 170.748 
L 198.887255 161.928 
L 199.049663 170.748 
L 199.212071 158.148 
L 199.37448 163.188 
L 199.536888 173.268 
L 199.861705 160.668 
L 200.024114 164.448 
L 200.186522 145.548 
L 200.348931 144.288 
L 200.673748 160.668 
L 200.836156 153.108 
L 200.998565 153.108 
L 201.160973 144.288 
L 201.323382 149.328 
L 201.48579 159.408 
L 201.648199 136.728 
L 201.810607 136.728 
L 201.973016 120.348 
L 202.135424 141.768 
L 202.297833 120.348 
L 202.460241 53.568 
L 202.62265 114.048 
L 202.785058 116.568 
L 202.947466 53.568 
L 203.921917 53.568 
L 204.246734 131.688 
L 204.571551 109.008 
L 204.73396 134.208 
L 204.896368 140.508 
L 205.058777 140.508 
L 205.383594 148.068 
L 205.546002 148.068 
L 205.708411 155.628 
L 205.870819 127.908 
L 206.033228 148.068 
L 206.195636 144.288 
L 206.358044 155.628 
L 206.84527 149.328 
L 207.007678 158.148 
L 207.170087 143.028 
L 207.494904 153.108 
L 207.657312 151.848 
L 207.982129 141.768 
L 208.144538 163.188 
L 208.469355 144.288 
L 208.631763 148.068 
L 208.794172 140.508 
L 208.95658 149.328 
L 209.118989 149.328 
L 209.281397 132.948 
L 209.606214 148.068 
L 209.768622 135.468 
L 209.931031 114.048 
L 210.093439 143.028 
L 210.255848 126.648 
L 210.418256 53.568 
L 212.20475 53.568 
L 212.367158 150.588 
L 212.529567 143.028 
L 212.691975 164.448 
L 212.854384 153.108 
L 213.016792 158.148 
L 213.341609 174.528 
L 213.504017 172.008 
L 213.666426 175.788 
L 213.828834 187.128 
L 213.991243 183.348 
L 214.153651 183.348 
L 214.31606 182.088 
L 214.478468 190.908 
L 214.640877 172.008 
L 214.803285 262.728 
L 214.965694 178.308 
L 215.128102 262.728 
L 215.290511 256.428 
L 215.452919 255.168 
L 215.615328 263.988 
L 215.777736 258.948 
L 215.940145 261.468 
L 216.102553 189.648 
L 216.264962 256.428 
L 216.42737 256.428 
L 216.589779 261.468 
L 216.752187 270.288 
L 216.914595 252.648 
L 217.077004 179.568 
L 217.239412 265.248 
L 217.401821 187.128 
L 217.564229 266.508 
L 217.726638 251.388 
L 217.889046 272.808 
L 218.051455 245.088 
L 218.213863 248.868 
L 218.53868 258.948 
L 218.701089 178.308 
L 218.863497 258.948 
L 219.025906 267.768 
L 219.188314 258.948 
L 219.350723 187.128 
L 219.513131 266.508 
L 219.67554 188.388 
L 219.837948 183.348 
L 220.000357 183.348 
L 220.162765 253.908 
L 220.325173 183.348 
L 220.487582 187.128 
L 220.64999 257.688 
L 220.812399 187.128 
L 220.974807 182.088 
L 221.137216 257.688 
L 221.299624 179.568 
L 221.462033 188.388 
L 221.624441 182.088 
L 221.78685 185.868 
L 221.949258 257.688 
L 222.111667 187.128 
L 222.274075 271.548 
L 222.436484 258.948 
L 222.598892 187.128 
L 222.923709 177.048 
L 223.086118 188.388 
L 223.248526 251.388 
L 223.410935 190.908 
L 223.573343 270.288 
L 223.735752 190.908 
L 223.89816 179.568 
L 224.060568 250.128 
L 224.222977 190.908 
L 224.385385 192.168 
L 224.547794 260.208 
L 224.710202 178.308 
L 224.872611 261.468 
L 225.035019 260.208 
L 225.197428 256.428 
L 225.359836 179.568 
L 225.522245 183.348 
L 225.684653 246.348 
L 225.847062 246.348 
L 226.00947 184.608 
L 226.171879 190.908 
L 226.334287 272.808 
L 226.496696 183.348 
L 226.659104 179.568 
L 226.821513 183.348 
L 226.983921 170.748 
L 227.14633 177.048 
L 227.308738 175.788 
L 227.471146 175.788 
L 227.633555 177.048 
L 227.958372 177.048 
L 228.12078 172.008 
L 228.283189 177.048 
L 228.445597 165.708 
L 228.608006 175.788 
L 228.770414 164.448 
L 228.932823 163.188 
L 229.25764 177.048 
L 229.420048 156.888 
L 229.582457 169.488 
L 229.744865 161.928 
L 229.907274 164.448 
L 230.069682 163.188 
L 230.232091 168.228 
L 230.394499 166.968 
L 230.556908 178.308 
L 230.719316 165.708 
L 230.881724 169.488 
L 231.044133 160.668 
L 231.206541 159.408 
L 231.36895 178.308 
L 231.531358 165.708 
L 231.856175 172.008 
L 232.180992 166.968 
L 232.343401 164.448 
L 232.505809 165.708 
L 232.668218 164.448 
L 232.830626 166.968 
L 232.993035 164.448 
L 233.155443 165.708 
L 233.317852 175.788 
L 233.48026 160.668 
L 233.642669 166.968 
L 233.805077 160.668 
L 233.967486 161.928 
L 234.129894 166.968 
L 234.292303 164.448 
L 234.454711 154.368 
L 234.617119 156.888 
L 234.779528 154.368 
L 234.941936 165.708 
L 235.104345 159.408 
L 235.266753 160.668 
L 235.429162 158.148 
L 235.59157 165.708 
L 235.753979 141.768 
L 235.916387 146.808 
L 236.078796 145.548 
L 236.241204 160.668 
L 236.403613 135.468 
L 236.566021 146.808 
L 236.890838 125.388 
L 237.053247 124.128 
L 237.215655 112.788 
L 237.378064 122.868 
L 237.540472 97.668 
L 237.702881 95.148 
L 237.865289 53.568 
L 268.073266 53.568 
L 268.235674 63.648 
L 268.398083 95.148 
L 268.560491 96.408 
L 268.7229 101.448 
L 268.885308 119.088 
L 269.047717 116.568 
L 269.210125 136.728 
L 269.534942 110.268 
L 269.69735 144.288 
L 269.859759 130.428 
L 270.022167 130.428 
L 270.184576 141.768 
L 270.346984 129.168 
L 270.671801 136.728 
L 270.83421 124.128 
L 270.996618 120.348 
L 271.159027 120.348 
L 271.321435 122.868 
L 271.646252 105.228 
L 271.971069 115.308 
L 272.133478 95.148 
L 272.295886 90.108 
L 272.458295 93.888 
L 272.620703 76.248 
L 272.783112 77.508 
L 272.94552 53.568 
L 280.41631 53.568 
L 280.578718 289.188 
L 280.741127 53.568 
L 280.903535 287.928 
L 281.065944 289.188 
L 281.228352 53.568 
L 281.390761 291.708 
L 281.553169 53.568 
L 281.715578 289.188 
L 281.877986 53.568 
L 282.040395 287.928 
L 282.365212 294.228 
L 282.52762 286.668 
L 282.690029 294.228 
L 283.014846 290.448 
L 283.177254 53.568 
L 283.339663 290.448 
L 283.502071 53.568 
L 283.66448 294.228 
L 283.826888 290.448 
L 283.989296 290.448 
L 284.151705 292.968 
L 284.314113 53.568 
L 284.476522 291.708 
L 284.63893 292.968 
L 284.801339 53.568 
L 289.836002 53.568 
L 289.99841 275.328 
L 290.160819 274.068 
L 290.323227 277.848 
L 290.485636 272.808 
L 290.648044 289.188 
L 290.972861 271.548 
L 291.135269 276.588 
L 291.297678 276.588 
L 291.460086 275.328 
L 291.622495 279.108 
L 291.784903 277.848 
L 291.947312 292.968 
L 292.10972 290.448 
L 292.272129 277.848 
L 292.434537 291.708 
L 292.596946 275.328 
L 292.759354 291.708 
L 292.921763 271.548 
L 293.084171 271.548 
L 293.24658 290.448 
L 293.408988 274.068 
L 293.571397 291.708 
L 293.733805 279.108 
L 293.896214 290.448 
L 294.058622 291.708 
L 294.221031 290.448 
L 294.383439 275.328 
L 294.545847 290.448 
L 294.708256 271.548 
L 294.870664 279.108 
L 295.033073 279.108 
L 295.195481 275.328 
L 295.520298 275.328 
L 295.682707 279.108 
L 295.845115 275.328 
L 296.169932 290.448 
L 296.332341 272.808 
L 296.494749 290.448 
L 296.819566 275.328 
L 296.981975 282.888 
L 297.144383 276.588 
L 297.306792 279.108 
L 297.4692 289.188 
L 297.631609 272.808 
L 297.794017 279.108 
L 297.956425 272.808 
L 298.118834 271.548 
L 298.281242 274.068 
L 298.443651 272.808 
L 298.606059 274.068 
L 298.768468 276.588 
L 298.930876 290.448 
L 299.093285 272.808 
L 299.255693 276.588 
L 299.418102 275.328 
L 299.58051 291.708 
L 299.742919 271.548 
L 299.905327 271.548 
L 300.067736 290.448 
L 300.230144 279.108 
L 300.392553 291.708 
L 300.554961 292.968 
L 300.71737 275.328 
L 300.879778 277.848 
L 301.042187 277.848 
L 301.204595 272.808 
L 301.367004 275.328 
L 301.529412 292.968 
L 301.69182 287.928 
L 301.854229 272.808 
L 302.016637 274.068 
L 302.179046 291.708 
L 302.341454 290.448 
L 302.503863 291.708 
L 302.666271 291.708 
L 302.82868 279.108 
L 302.991088 277.848 
L 303.315905 271.548 
L 303.640722 275.328 
L 303.803131 274.068 
L 303.965539 279.108 
L 304.127948 290.448 
L 304.290356 291.708 
L 304.452765 271.548 
L 304.615173 291.708 
L 304.777582 290.448 
L 304.93999 291.708 
L 305.264807 272.808 
L 305.427215 291.708 
L 305.589624 274.068 
L 305.752032 274.068 
L 305.914441 291.708 
L 306.076849 276.588 
L 306.239258 290.448 
L 306.401666 292.968 
L 306.564075 282.888 
L 306.726483 290.448 
L 307.0513 292.968 
L 307.213709 289.188 
L 307.376117 275.328 
L 307.538526 291.708 
L 307.700934 274.068 
L 307.863343 291.708 
L 308.025751 275.328 
L 308.512976 292.968 
L 308.675385 275.328 
L 308.837793 277.848 
L 309.000202 274.068 
L 309.16261 291.708 
L 309.325019 271.548 
L 309.487427 271.548 
L 309.649836 291.708 
L 309.812244 275.328 
L 309.974653 289.188 
L 310.137061 280.368 
L 310.29947 290.448 
L 310.461878 275.328 
L 310.786695 275.328 
L 310.949104 279.108 
L 311.111512 290.448 
L 311.273921 271.548 
L 311.436329 276.588 
L 311.598738 271.548 
L 311.761146 274.068 
L 311.923555 290.448 
L 312.085963 279.108 
L 312.248371 276.588 
L 312.41078 277.848 
L 312.573188 271.548 
L 312.735597 277.848 
L 312.898005 279.108 
L 313.060414 274.068 
L 313.222822 272.808 
L 313.385231 282.888 
L 313.547639 276.588 
L 313.710048 279.108 
L 313.872456 279.108 
L 314.034865 274.068 
L 314.197273 275.328 
L 314.359682 275.328 
L 314.52209 276.588 
L 314.684499 280.368 
L 314.846907 276.588 
L 315.009316 277.848 
L 315.171724 275.328 
L 315.334133 279.108 
L 315.496541 279.108 
L 315.658949 272.808 
L 315.983766 279.108 
L 316.146175 276.588 
L 316.308583 289.188 
L 316.6334 276.588 
L 316.795809 275.328 
L 316.958217 272.808 
L 317.120626 274.068 
L 317.283034 279.108 
L 317.445443 291.708 
L 317.607851 274.068 
L 317.932668 276.588 
L 318.095077 279.108 
L 318.257485 291.708 
L 318.419894 277.848 
L 318.582302 290.448 
L 318.744711 291.708 
L 318.907119 271.548 
L 319.069527 271.548 
L 319.231936 282.888 
L 319.394344 279.108 
L 319.556753 279.108 
L 319.719161 271.548 
L 319.88157 277.848 
L 320.043978 290.448 
L 320.206387 289.188 
L 320.368795 276.588 
L 320.531204 290.448 
L 320.693612 272.808 
L 320.856021 271.548 
L 321.018429 290.448 
L 321.180838 270.288 
L 321.343246 276.588 
L 321.505655 291.708 
L 321.668063 277.848 
L 321.830472 282.888 
L 321.99288 271.548 
L 322.155289 279.108 
L 322.317697 272.808 
L 322.642514 276.588 
L 322.804922 271.548 
L 322.967331 279.108 
L 323.129739 271.548 
L 323.292148 272.808 
L 323.454556 275.328 
L 323.616965 274.068 
L 323.779373 269.028 
L 324.266599 289.188 
L 324.429007 274.068 
L 324.591416 276.588 
L 324.753824 275.328 
L 324.916233 281.628 
L 325.078641 271.548 
L 325.24105 272.808 
L 325.403458 271.548 
L 325.565867 291.708 
L 325.728275 272.808 
L 325.890684 272.808 
L 326.053092 274.068 
L 326.2155 276.588 
L 326.377909 276.588 
L 326.540317 275.328 
L 326.702726 276.588 
L 326.865134 272.808 
L 327.027543 277.848 
L 327.189951 279.108 
L 327.514768 271.548 
L 327.677177 282.888 
L 327.839585 279.108 
L 328.001994 279.108 
L 328.164402 272.808 
L 328.326811 275.328 
L 328.651628 275.328 
L 328.814036 292.968 
L 328.976445 275.328 
L 329.138853 271.548 
L 329.301262 277.848 
L 329.46367 290.448 
L 329.626078 275.328 
L 329.950895 280.368 
L 330.113304 270.288 
L 330.275712 292.968 
L 330.438121 271.548 
L 330.600529 290.448 
L 330.762938 271.548 
L 330.925346 271.548 
L 331.087755 272.808 
L 331.250163 275.328 
L 331.412572 291.708 
L 331.57498 291.708 
L 331.737389 292.968 
L 331.899797 292.968 
L 332.224614 274.068 
L 332.387023 290.448 
L 332.549431 271.548 
L 332.71184 277.848 
L 332.874248 275.328 
L 333.036657 290.448 
L 333.523882 271.548 
L 333.68629 279.108 
L 333.848699 279.108 
L 334.011107 274.068 
L 334.173516 291.708 
L 334.335924 290.448 
L 334.498333 275.328 
L 334.660741 291.708 
L 334.82315 289.188 
L 335.147967 272.808 
L 335.310375 282.888 
L 335.472784 272.808 
L 335.635192 271.548 
L 335.797601 271.548 
L 335.960009 279.108 
L 336.122418 272.808 
L 336.284826 277.848 
L 336.447235 276.588 
L 336.609643 272.808 
L 336.772051 276.588 
L 336.93446 275.328 
L 337.096868 280.368 
L 337.259277 275.328 
L 337.421685 281.628 
L 337.584094 279.108 
L 337.746502 271.548 
L 337.908911 290.448 
L 338.071319 279.108 
L 338.233728 279.108 
L 338.396136 270.288 
L 338.558545 272.808 
L 338.720953 280.368 
L 339.04577 271.548 
L 339.208179 280.368 
L 339.532996 271.548 
L 339.695404 279.108 
L 339.857813 272.808 
L 340.020221 280.368 
L 340.182629 274.068 
L 340.507446 282.888 
L 340.669855 272.808 
L 340.832263 281.628 
L 341.319489 272.808 
L 341.481897 274.068 
L 341.644306 279.108 
L 341.806714 274.068 
L 341.969123 275.328 
L 342.131531 275.328 
L 342.29394 272.808 
L 342.618757 282.888 
L 342.781165 274.068 
L 343.268391 281.628 
L 343.430799 279.108 
L 343.593208 279.108 
L 343.755616 280.368 
L 343.918024 276.588 
L 344.242841 276.588 
L 344.40525 271.548 
L 344.567658 279.108 
L 344.730067 271.548 
L 344.892475 276.588 
L 345.054884 276.588 
L 345.217292 282.888 
L 345.379701 280.368 
L 345.542109 272.808 
L 345.704518 279.108 
L 345.866926 275.328 
L 346.029335 276.588 
L 346.191743 274.068 
L 346.354152 276.588 
L 346.678969 276.588 
L 347.003786 270.288 
L 347.166194 271.548 
L 347.491011 282.888 
L 347.653419 277.848 
L 347.815828 279.108 
L 347.978236 276.588 
L 348.140645 279.108 
L 348.303053 274.068 
L 348.465462 280.368 
L 348.62787 280.368 
L 348.790279 276.588 
L 348.952687 279.108 
L 349.115096 279.108 
L 349.277504 277.848 
L 349.439913 282.888 
L 349.602321 274.068 
L 349.76473 272.808 
L 349.927138 274.068 
L 350.089547 277.848 
L 350.251955 272.808 
L 350.414364 274.068 
L 350.576772 276.588 
L 350.73918 272.808 
L 351.063997 279.108 
L 351.226406 275.328 
L 351.388814 279.108 
L 351.551223 292.968 
L 351.713631 276.588 
L 351.87604 275.328 
L 352.038448 272.808 
L 352.200857 290.448 
L 352.363265 271.548 
L 352.525674 276.588 
L 352.688082 275.328 
L 352.850491 276.588 
L 353.012899 272.808 
L 353.175308 272.808 
L 353.337716 290.448 
L 353.500125 271.548 
L 353.662533 272.808 
L 353.824942 275.328 
L 353.98735 275.328 
L 354.149759 280.368 
L 354.312167 290.448 
L 354.474575 287.928 
L 354.636984 275.328 
L 354.799392 292.968 
L 354.961801 291.708 
L 355.124209 271.548 
L 355.286618 289.188 
L 355.449026 275.328 
L 355.611435 275.328 
L 355.773843 271.548 
L 355.936252 276.588 
L 356.09866 277.848 
L 356.261069 280.368 
L 356.423477 275.328 
L 356.585886 279.108 
L 356.748294 276.588 
L 356.910703 279.108 
L 357.073111 279.108 
L 357.23552 271.548 
L 357.397928 271.548 
L 357.560337 277.848 
L 357.722745 271.548 
L 357.885153 279.108 
L 358.047562 270.288 
L 358.20997 271.548 
L 358.372379 289.188 
L 358.697196 275.328 
L 358.859604 276.588 
L 359.022013 275.328 
L 359.184421 272.808 
L 359.509238 275.328 
L 359.671647 274.068 
L 359.834055 275.328 
L 359.996464 277.848 
L 360.158872 277.848 
L 360.321281 272.808 
L 360.483689 271.548 
L 360.646098 272.808 
L 360.808506 279.108 
L 360.970915 276.588 
L 361.133323 276.588 
L 361.295732 271.548 
L 361.45814 279.108 
L 361.620548 272.808 
L 361.782957 276.588 
L 361.945365 275.328 
L 362.107774 279.108 
L 362.270182 292.968 
L 362.594999 274.068 
L 362.757408 279.108 
L 362.919816 277.848 
L 363.082225 291.708 
L 363.244633 276.588 
L 363.407042 275.328 
L 363.56945 280.368 
L 363.731859 272.808 
L 363.894267 275.328 
L 364.056676 282.888 
L 364.219084 275.328 
L 364.381493 275.328 
L 364.543901 276.588 
L 364.70631 279.108 
L 364.868718 279.108 
L 365.031126 272.808 
L 365.193535 275.328 
L 365.355943 272.808 
L 365.68076 279.108 
L 365.843169 279.108 
L 366.005577 274.068 
L 366.167986 279.108 
L 366.330394 272.808 
L 366.492803 274.068 
L 366.655211 274.068 
L 367.142437 282.888 
L 367.304845 276.588 
L 367.467254 279.108 
L 367.629662 272.808 
L 367.792071 274.068 
L 367.954479 279.108 
L 368.116888 275.328 
L 368.279296 280.368 
L 368.604113 274.068 
L 368.766521 277.848 
L 368.92893 277.848 
L 369.253747 280.368 
L 369.416155 282.888 
L 369.578564 279.108 
L 369.740972 282.888 
L 369.903381 279.108 
L 370.065789 280.368 
L 370.228198 279.108 
L 370.390606 276.588 
L 370.553015 282.888 
L 370.877832 279.108 
L 371.202649 279.108 
L 371.365057 277.848 
L 371.527466 279.108 
L 371.689874 276.588 
L 371.852283 285.408 
L 372.177099 274.068 
L 372.339508 274.068 
L 372.664325 270.288 
L 372.826733 279.108 
L 372.989142 274.068 
L 373.15155 274.068 
L 373.313959 271.548 
L 373.476367 280.368 
L 373.638776 272.808 
L 373.801184 271.548 
L 374.126001 282.888 
L 374.28841 276.588 
L 374.450818 279.108 
L 374.938044 272.808 
L 375.100452 275.328 
L 375.262861 275.328 
L 375.425269 282.888 
L 375.587677 274.068 
L 375.750086 274.068 
L 375.912494 289.188 
L 376.074903 272.808 
L 376.237311 279.108 
L 376.39972 291.708 
L 376.562128 272.808 
L 376.724537 287.928 
L 376.886945 275.328 
L 377.049354 290.448 
L 377.211762 274.068 
L 377.374171 279.108 
L 377.536579 279.108 
L 377.861396 272.808 
L 378.023805 271.548 
L 378.186213 279.108 
L 378.348622 272.808 
L 378.51103 274.068 
L 378.673439 271.548 
L 378.835847 272.808 
L 378.998255 270.288 
L 379.160664 275.328 
L 379.323072 275.328 
L 379.485481 289.188 
L 379.647889 275.328 
L 379.810298 272.808 
L 379.972706 272.808 
L 380.135115 271.548 
L 380.297523 277.848 
L 380.62234 275.328 
L 380.784749 279.108 
L 380.947157 272.808 
L 381.271974 280.368 
L 381.596791 271.548 
L 381.7592 271.548 
L 381.921608 276.588 
L 382.084017 276.588 
L 382.246425 280.368 
L 382.408834 269.028 
L 382.571242 280.368 
L 382.73365 280.368 
L 383.058467 271.548 
L 383.220876 279.108 
L 383.383284 276.588 
L 383.545693 282.888 
L 383.708101 276.588 
L 383.87051 275.328 
L 384.032918 272.808 
L 384.357735 277.848 
L 384.520144 276.588 
L 384.682552 274.068 
L 384.844961 277.848 
L 385.169778 274.068 
L 385.332186 275.328 
L 385.494595 282.888 
L 385.657003 282.888 
L 385.819412 279.108 
L 385.98182 271.548 
L 386.144228 272.808 
L 386.469045 279.108 
L 386.631454 276.588 
L 386.793862 269.028 
L 387.118679 279.108 
L 387.281088 272.808 
L 387.443496 272.808 
L 387.768313 277.848 
L 387.930722 275.328 
L 388.09313 282.888 
L 388.255539 276.588 
L 388.417947 279.108 
L 388.580356 276.588 
L 388.742764 269.028 
L 389.067581 277.848 
L 389.22999 279.108 
L 389.392398 271.548 
L 389.554806 276.588 
L 389.717215 269.028 
L 389.879623 275.328 
L 390.042032 272.808 
L 390.20444 275.328 
L 390.366849 269.028 
L 390.529257 276.588 
L 390.691666 277.848 
L 390.854074 275.328 
L 391.178891 282.888 
L 391.3413 275.328 
L 391.503708 281.628 
L 391.666117 271.548 
L 391.828525 271.548 
L 391.990934 280.368 
L 392.153342 271.548 
L 392.315751 280.368 
L 392.478159 279.108 
L 392.640568 275.328 
L 392.802976 279.108 
L 392.965385 276.588 
L 393.290201 276.588 
L 393.45261 270.288 
L 393.615018 276.588 
L 393.777427 275.328 
L 393.939835 269.028 
L 394.427061 279.108 
L 394.589469 277.848 
L 394.751878 279.108 
L 394.914286 275.328 
L 395.076695 279.108 
L 395.239103 279.108 
L 395.401512 274.068 
L 395.56392 280.368 
L 395.888737 275.328 
L 396.051146 275.328 
L 396.213554 276.588 
L 396.375963 270.288 
L 396.538371 274.068 
L 396.700779 272.808 
L 396.863188 276.588 
L 397.025596 275.328 
L 397.188005 277.848 
L 397.350413 275.328 
L 397.512822 280.368 
L 397.67523 271.548 
L 397.837639 280.368 
L 398.000047 272.808 
L 398.162456 274.068 
L 398.324864 271.548 
L 398.487273 276.588 
L 398.487273 276.588 
" style="fill:none;stroke:#1f77b4;stroke-linecap:square;stroke-width:1.5;"/>
   </g>
   <g id="patch_3">
    <path d="M 57.6 307.584 
L 57.6 41.472 
" style="fill:none;stroke:#000000;stroke-linecap:square;stroke-linejoin:miter;stroke-width:0.8;"/>
   </g>
   <g id="patch_4">
    <path d="M 414.72 307.584 
L 414.72 41.472 
" style="fill:none;stroke:#000000;stroke-linecap:square;stroke-linejoin:miter;stroke-width:0.8;"/>
   </g>
   <g id="patch_5">
    <path d="M 57.6 307.584 
L 414.72 307.584 
" style="fill:none;stroke:#000000;stroke-linecap:square;stroke-linejoin:miter;stroke-width:0.8;"/>
   </g>
   <g id="patch_6">
    <path d="M 57.6 41.472 
L 414.72 41.472 
" style="fill:none;stroke:#000000;stroke-linecap:square;stroke-linejoin:miter;stroke-width:0.8;"/>
   </g>
   <g id="legend_1">
    <g id="patch_7">
     <path d="M 260.545 183.367062 
L 407.72 183.367062 
Q 409.72 183.367062 409.72 181.367062 
L 409.72 167.688937 
Q 409.72 165.688937 407.72 165.688937 
L 260.545 165.688937 
Q 258.545 165.688937 258.545 167.688937 
L 258.545 181.367062 
Q 258.545 183.367062 260.545 183.367062 
z
" style="fill:#ffffff;opacity:0.8;stroke:#cccccc;stroke-linejoin:miter;"/>
    </g>
    <g id="line2d_20">
     <path d="M 262.545 173.787375 
L 282.545 173.787375 
" style="fill:none;stroke:#1f77b4;stroke-linecap:square;stroke-width:1.5;"/>
    </g>
    <g id="line2d_21"/>
    <g id="text_21">
     <!-- Reward over trajectory -->
     <defs>
      <path d="M 2.984375 54.6875 
L 12.5 54.6875 
L 29.59375 8.796875 
L 46.6875 54.6875 
L 56.203125 54.6875 
L 35.6875 0 
L 23.484375 0 
z
" id="DejaVuSans-118"/>
      <path d="M 9.421875 54.6875 
L 18.40625 54.6875 
L 18.40625 -0.984375 
Q 18.40625 -11.421875 14.421875 -16.109375 
Q 10.453125 -20.796875 1.609375 -20.796875 
L -1.8125 -20.796875 
L -1.8125 -13.1875 
L 0.59375 -13.1875 
Q 5.71875 -13.1875 7.5625 -10.8125 
Q 9.421875 -8.453125 9.421875 -0.984375 
z
M 9.421875 75.984375 
L 18.40625 75.984375 
L 18.40625 64.59375 
L 9.421875 64.59375 
z
" id="DejaVuSans-106"/>
      <path d="M 48.78125 52.59375 
L 48.78125 44.1875 
Q 44.96875 46.296875 41.140625 47.34375 
Q 37.3125 48.390625 33.40625 48.390625 
Q 24.65625 48.390625 19.8125 42.84375 
Q 14.984375 37.3125 14.984375 27.296875 
Q 14.984375 17.28125 19.8125 11.734375 
Q 24.65625 6.203125 33.40625 6.203125 
Q 37.3125 6.203125 41.140625 7.25 
Q 44.96875 8.296875 48.78125 10.40625 
L 48.78125 2.09375 
Q 45.015625 0.34375 40.984375 -0.53125 
Q 36.96875 -1.421875 32.421875 -1.421875 
Q 20.0625 -1.421875 12.78125 6.34375 
Q 5.515625 14.109375 5.515625 27.296875 
Q 5.515625 40.671875 12.859375 48.328125 
Q 20.21875 56 33.015625 56 
Q 37.15625 56 41.109375 55.140625 
Q 45.0625 54.296875 48.78125 52.59375 
z
" id="DejaVuSans-99"/>
      <path d="M 32.171875 -5.078125 
Q 28.375 -14.84375 24.75 -17.8125 
Q 21.140625 -20.796875 15.09375 -20.796875 
L 7.90625 -20.796875 
L 7.90625 -13.28125 
L 13.1875 -13.28125 
Q 16.890625 -13.28125 18.9375 -11.515625 
Q 21 -9.765625 23.484375 -3.21875 
L 25.09375 0.875 
L 2.984375 54.6875 
L 12.5 54.6875 
L 29.59375 11.921875 
L 46.6875 54.6875 
L 56.203125 54.6875 
z
" id="DejaVuSans-121"/>
     </defs>
     <g transform="translate(290.545 177.287375)scale(0.1 -0.1)">
      <use xlink:href="#DejaVuSans-82"/>
      <use x="69.419922" xlink:href="#DejaVuSans-101"/>
      <use x="130.943359" xlink:href="#DejaVuSans-119"/>
      <use x="212.730469" xlink:href="#DejaVuSans-97"/>
      <use x="274.009766" xlink:href="#DejaVuSans-114"/>
      <use x="315.107422" xlink:href="#DejaVuSans-100"/>
      <use x="378.583984" xlink:href="#DejaVuSans-32"/>
      <use x="410.371094" xlink:href="#DejaVuSans-111"/>
      <use x="471.552734" xlink:href="#DejaVuSans-118"/>
      <use x="530.732422" xlink:href="#DejaVuSans-101"/>
      <use x="592.255859" xlink:href="#DejaVuSans-114"/>
      <use x="633.369141" xlink:href="#DejaVuSans-32"/>
      <use x="665.15625" xlink:href="#DejaVuSans-116"/>
      <use x="704.365234" xlink:href="#DejaVuSans-114"/>
      <use x="745.478516" xlink:href="#DejaVuSans-97"/>
      <use x="806.757812" xlink:href="#DejaVuSans-106"/>
      <use x="834.541016" xlink:href="#DejaVuSans-101"/>
      <use x="896.064453" xlink:href="#DejaVuSans-99"/>
      <use x="951.044922" xlink:href="#DejaVuSans-116"/>
      <use x="990.253906" xlink:href="#DejaVuSans-111"/>
      <use x="1051.435547" xlink:href="#DejaVuSans-114"/>
      <use x="1092.548828" xlink:href="#DejaVuSans-121"/>
     </g>
    </g>
   </g>
  </g>
 </g>
 <defs>
  <clipPath id="p525f1192a5">
   <rect height="266.112" width="357.12" x="57.6" y="41.472"/>
  </clipPath>
 </defs>
</svg>
