<?xml version="1.0" encoding="utf-8" standalone="no"?>
<!DOCTYPE svg PUBLIC "-//W3C//DTD SVG 1.1//EN"
  "http://www.w3.org/Graphics/SVG/1.1/DTD/svg11.dtd">
<!-- Created with matplotlib (https://matplotlib.org/) -->
<svg height="345.6pt" version="1.1" viewBox="0 0 460.8 345.6" width="460.8pt" xmlns="http://www.w3.org/2000/svg" xmlns:xlink="http://www.w3.org/1999/xlink">
 <defs>
  <style type="text/css">
*{stroke-linecap:butt;stroke-linejoin:round;}
  </style>
 </defs>
 <g id="figure_1">
  <g id="patch_1">
   <path d="M 0 345.6 
L 460.8 345.6 
L 460.8 0 
L 0 0 
z
" style="fill:#ffffff;"/>
  </g>
  <g id="axes_1">
   <g id="patch_2">
    <path d="M 57.6 307.584 
L 414.72 307.584 
L 414.72 41.472 
L 57.6 41.472 
z
" style="fill:#ffffff;"/>
   </g>
   <g id="matplotlib.axis_1">
    <g id="xtick_1">
     <g id="line2d_1">
      <defs>
       <path d="M 0 0 
L 0 3.5 
" id="ma57b6c3254" style="stroke:#000000;stroke-width:0.8;"/>
      </defs>
      <g>
       <use style="stroke:#000000;stroke-width:0.8;" x="73.832727" xlink:href="#ma57b6c3254" y="307.584"/>
      </g>
     </g>
     <g id="text_1">
      <!-- 0 -->
      <defs>
       <path d="M 31.78125 66.40625 
Q 24.171875 66.40625 20.328125 58.90625 
Q 16.5 51.421875 16.5 36.375 
Q 16.5 21.390625 20.328125 13.890625 
Q 24.171875 6.390625 31.78125 6.390625 
Q 39.453125 6.390625 43.28125 13.890625 
Q 47.125 21.390625 47.125 36.375 
Q 47.125 51.421875 43.28125 58.90625 
Q 39.453125 66.40625 31.78125 66.40625 
z
M 31.78125 74.21875 
Q 44.046875 74.21875 50.515625 64.515625 
Q 56.984375 54.828125 56.984375 36.375 
Q 56.984375 17.96875 50.515625 8.265625 
Q 44.046875 -1.421875 31.78125 -1.421875 
Q 19.53125 -1.421875 13.0625 8.265625 
Q 6.59375 17.96875 6.59375 36.375 
Q 6.59375 54.828125 13.0625 64.515625 
Q 19.53125 74.21875 31.78125 74.21875 
z
" id="DejaVuSans-48"/>
      </defs>
      <g transform="translate(70.651477 322.182437)scale(0.1 -0.1)">
       <use xlink:href="#DejaVuSans-48"/>
      </g>
     </g>
    </g>
    <g id="xtick_2">
     <g id="line2d_2">
      <g>
       <use style="stroke:#000000;stroke-width:0.8;" x="114.434847" xlink:href="#ma57b6c3254" y="307.584"/>
      </g>
     </g>
     <g id="text_2">
      <!-- 250 -->
      <defs>
       <path d="M 19.1875 8.296875 
L 53.609375 8.296875 
L 53.609375 0 
L 7.328125 0 
L 7.328125 8.296875 
Q 12.9375 14.109375 22.625 23.890625 
Q 32.328125 33.6875 34.8125 36.53125 
Q 39.546875 41.84375 41.421875 45.53125 
Q 43.3125 49.21875 43.3125 52.78125 
Q 43.3125 58.59375 39.234375 62.25 
Q 35.15625 65.921875 28.609375 65.921875 
Q 23.96875 65.921875 18.8125 64.3125 
Q 13.671875 62.703125 7.8125 59.421875 
L 7.8125 69.390625 
Q 13.765625 71.78125 18.9375 73 
Q 24.125 74.21875 28.421875 74.21875 
Q 39.75 74.21875 46.484375 68.546875 
Q 53.21875 62.890625 53.21875 53.421875 
Q 53.21875 48.921875 51.53125 44.890625 
Q 49.859375 40.875 45.40625 35.40625 
Q 44.1875 33.984375 37.640625 27.21875 
Q 31.109375 20.453125 19.1875 8.296875 
z
" id="DejaVuSans-50"/>
       <path d="M 10.796875 72.90625 
L 49.515625 72.90625 
L 49.515625 64.59375 
L 19.828125 64.59375 
L 19.828125 46.734375 
Q 21.96875 47.46875 24.109375 47.828125 
Q 26.265625 48.1875 28.421875 48.1875 
Q 40.625 48.1875 47.75 41.5 
Q 54.890625 34.8125 54.890625 23.390625 
Q 54.890625 11.625 47.5625 5.09375 
Q 40.234375 -1.421875 26.90625 -1.421875 
Q 22.3125 -1.421875 17.546875 -0.640625 
Q 12.796875 0.140625 7.71875 1.703125 
L 7.71875 11.625 
Q 12.109375 9.234375 16.796875 8.0625 
Q 21.484375 6.890625 26.703125 6.890625 
Q 35.15625 6.890625 40.078125 11.328125 
Q 45.015625 15.765625 45.015625 23.390625 
Q 45.015625 31 40.078125 35.4375 
Q 35.15625 39.890625 26.703125 39.890625 
Q 22.75 39.890625 18.8125 39.015625 
Q 14.890625 38.140625 10.796875 36.28125 
z
" id="DejaVuSans-53"/>
      </defs>
      <g transform="translate(104.891097 322.182437)scale(0.1 -0.1)">
       <use xlink:href="#DejaVuSans-50"/>
       <use x="63.623047" xlink:href="#DejaVuSans-53"/>
       <use x="127.246094" xlink:href="#DejaVuSans-48"/>
      </g>
     </g>
    </g>
    <g id="xtick_3">
     <g id="line2d_3">
      <g>
       <use style="stroke:#000000;stroke-width:0.8;" x="155.036966" xlink:href="#ma57b6c3254" y="307.584"/>
      </g>
     </g>
     <g id="text_3">
      <!-- 500 -->
      <g transform="translate(145.493216 322.182437)scale(0.1 -0.1)">
       <use xlink:href="#DejaVuSans-53"/>
       <use x="63.623047" xlink:href="#DejaVuSans-48"/>
       <use x="127.246094" xlink:href="#DejaVuSans-48"/>
      </g>
     </g>
    </g>
    <g id="xtick_4">
     <g id="line2d_4">
      <g>
       <use style="stroke:#000000;stroke-width:0.8;" x="195.639085" xlink:href="#ma57b6c3254" y="307.584"/>
      </g>
     </g>
     <g id="text_4">
      <!-- 750 -->
      <defs>
       <path d="M 8.203125 72.90625 
L 55.078125 72.90625 
L 55.078125 68.703125 
L 28.609375 0 
L 18.3125 0 
L 43.21875 64.59375 
L 8.203125 64.59375 
z
" id="DejaVuSans-55"/>
      </defs>
      <g transform="translate(186.095335 322.182437)scale(0.1 -0.1)">
       <use xlink:href="#DejaVuSans-55"/>
       <use x="63.623047" xlink:href="#DejaVuSans-53"/>
       <use x="127.246094" xlink:href="#DejaVuSans-48"/>
      </g>
     </g>
    </g>
    <g id="xtick_5">
     <g id="line2d_5">
      <g>
       <use style="stroke:#000000;stroke-width:0.8;" x="236.241204" xlink:href="#ma57b6c3254" y="307.584"/>
      </g>
     </g>
     <g id="text_5">
      <!-- 1000 -->
      <defs>
       <path d="M 12.40625 8.296875 
L 28.515625 8.296875 
L 28.515625 63.921875 
L 10.984375 60.40625 
L 10.984375 69.390625 
L 28.421875 72.90625 
L 38.28125 72.90625 
L 38.28125 8.296875 
L 54.390625 8.296875 
L 54.390625 0 
L 12.40625 0 
z
" id="DejaVuSans-49"/>
      </defs>
      <g transform="translate(223.516204 322.182437)scale(0.1 -0.1)">
       <use xlink:href="#DejaVuSans-49"/>
       <use x="63.623047" xlink:href="#DejaVuSans-48"/>
       <use x="127.246094" xlink:href="#DejaVuSans-48"/>
       <use x="190.869141" xlink:href="#DejaVuSans-48"/>
      </g>
     </g>
    </g>
    <g id="xtick_6">
     <g id="line2d_6">
      <g>
       <use style="stroke:#000000;stroke-width:0.8;" x="276.843323" xlink:href="#ma57b6c3254" y="307.584"/>
      </g>
     </g>
     <g id="text_6">
      <!-- 1250 -->
      <g transform="translate(264.118323 322.182437)scale(0.1 -0.1)">
       <use xlink:href="#DejaVuSans-49"/>
       <use x="63.623047" xlink:href="#DejaVuSans-50"/>
       <use x="127.246094" xlink:href="#DejaVuSans-53"/>
       <use x="190.869141" xlink:href="#DejaVuSans-48"/>
      </g>
     </g>
    </g>
    <g id="xtick_7">
     <g id="line2d_7">
      <g>
       <use style="stroke:#000000;stroke-width:0.8;" x="317.445443" xlink:href="#ma57b6c3254" y="307.584"/>
      </g>
     </g>
     <g id="text_7">
      <!-- 1500 -->
      <g transform="translate(304.720443 322.182437)scale(0.1 -0.1)">
       <use xlink:href="#DejaVuSans-49"/>
       <use x="63.623047" xlink:href="#DejaVuSans-53"/>
       <use x="127.246094" xlink:href="#DejaVuSans-48"/>
       <use x="190.869141" xlink:href="#DejaVuSans-48"/>
      </g>
     </g>
    </g>
    <g id="xtick_8">
     <g id="line2d_8">
      <g>
       <use style="stroke:#000000;stroke-width:0.8;" x="358.047562" xlink:href="#ma57b6c3254" y="307.584"/>
      </g>
     </g>
     <g id="text_8">
      <!-- 1750 -->
      <g transform="translate(345.322562 322.182437)scale(0.1 -0.1)">
       <use xlink:href="#DejaVuSans-49"/>
       <use x="63.623047" xlink:href="#DejaVuSans-55"/>
       <use x="127.246094" xlink:href="#DejaVuSans-53"/>
       <use x="190.869141" xlink:href="#DejaVuSans-48"/>
      </g>
     </g>
    </g>
    <g id="xtick_9">
     <g id="line2d_9">
      <g>
       <use style="stroke:#000000;stroke-width:0.8;" x="398.649681" xlink:href="#ma57b6c3254" y="307.584"/>
      </g>
     </g>
     <g id="text_9">
      <!-- 2000 -->
      <g transform="translate(385.924681 322.182437)scale(0.1 -0.1)">
       <use xlink:href="#DejaVuSans-50"/>
       <use x="63.623047" xlink:href="#DejaVuSans-48"/>
       <use x="127.246094" xlink:href="#DejaVuSans-48"/>
       <use x="190.869141" xlink:href="#DejaVuSans-48"/>
      </g>
     </g>
    </g>
    <g id="text_10">
     <!-- No of Iterations -->
     <defs>
      <path d="M 9.8125 72.90625 
L 23.09375 72.90625 
L 55.421875 11.921875 
L 55.421875 72.90625 
L 64.984375 72.90625 
L 64.984375 0 
L 51.703125 0 
L 19.390625 60.984375 
L 19.390625 0 
L 9.8125 0 
z
" id="DejaVuSans-78"/>
      <path d="M 30.609375 48.390625 
Q 23.390625 48.390625 19.1875 42.75 
Q 14.984375 37.109375 14.984375 27.296875 
Q 14.984375 17.484375 19.15625 11.84375 
Q 23.34375 6.203125 30.609375 6.203125 
Q 37.796875 6.203125 41.984375 11.859375 
Q 46.1875 17.53125 46.1875 27.296875 
Q 46.1875 37.015625 41.984375 42.703125 
Q 37.796875 48.390625 30.609375 48.390625 
z
M 30.609375 56 
Q 42.328125 56 49.015625 48.375 
Q 55.71875 40.765625 55.71875 27.296875 
Q 55.71875 13.875 49.015625 6.21875 
Q 42.328125 -1.421875 30.609375 -1.421875 
Q 18.84375 -1.421875 12.171875 6.21875 
Q 5.515625 13.875 5.515625 27.296875 
Q 5.515625 40.765625 12.171875 48.375 
Q 18.84375 56 30.609375 56 
z
" id="DejaVuSans-111"/>
      <path id="DejaVuSans-32"/>
      <path d="M 37.109375 75.984375 
L 37.109375 68.5 
L 28.515625 68.5 
Q 23.6875 68.5 21.796875 66.546875 
Q 19.921875 64.59375 19.921875 59.515625 
L 19.921875 54.6875 
L 34.71875 54.6875 
L 34.71875 47.703125 
L 19.921875 47.703125 
L 19.921875 0 
L 10.890625 0 
L 10.890625 47.703125 
L 2.296875 47.703125 
L 2.296875 54.6875 
L 10.890625 54.6875 
L 10.890625 58.5 
Q 10.890625 67.625 15.140625 71.796875 
Q 19.390625 75.984375 28.609375 75.984375 
z
" id="DejaVuSans-102"/>
      <path d="M 9.8125 72.90625 
L 19.671875 72.90625 
L 19.671875 0 
L 9.8125 0 
z
" id="DejaVuSans-73"/>
      <path d="M 18.3125 70.21875 
L 18.3125 54.6875 
L 36.8125 54.6875 
L 36.8125 47.703125 
L 18.3125 47.703125 
L 18.3125 18.015625 
Q 18.3125 11.328125 20.140625 9.421875 
Q 21.96875 7.515625 27.59375 7.515625 
L 36.8125 7.515625 
L 36.8125 0 
L 27.59375 0 
Q 17.1875 0 13.234375 3.875 
Q 9.28125 7.765625 9.28125 18.015625 
L 9.28125 47.703125 
L 2.6875 47.703125 
L 2.6875 54.6875 
L 9.28125 54.6875 
L 9.28125 70.21875 
z
" id="DejaVuSans-116"/>
      <path d="M 56.203125 29.59375 
L 56.203125 25.203125 
L 14.890625 25.203125 
Q 15.484375 15.921875 20.484375 11.0625 
Q 25.484375 6.203125 34.421875 6.203125 
Q 39.59375 6.203125 44.453125 7.46875 
Q 49.3125 8.734375 54.109375 11.28125 
L 54.109375 2.78125 
Q 49.265625 0.734375 44.1875 -0.34375 
Q 39.109375 -1.421875 33.890625 -1.421875 
Q 20.796875 -1.421875 13.15625 6.1875 
Q 5.515625 13.8125 5.515625 26.8125 
Q 5.515625 40.234375 12.765625 48.109375 
Q 20.015625 56 32.328125 56 
Q 43.359375 56 49.78125 48.890625 
Q 56.203125 41.796875 56.203125 29.59375 
z
M 47.21875 32.234375 
Q 47.125 39.59375 43.09375 43.984375 
Q 39.0625 48.390625 32.421875 48.390625 
Q 24.90625 48.390625 20.390625 44.140625 
Q 15.875 39.890625 15.1875 32.171875 
z
" id="DejaVuSans-101"/>
      <path d="M 41.109375 46.296875 
Q 39.59375 47.171875 37.8125 47.578125 
Q 36.03125 48 33.890625 48 
Q 26.265625 48 22.1875 43.046875 
Q 18.109375 38.09375 18.109375 28.8125 
L 18.109375 0 
L 9.078125 0 
L 9.078125 54.6875 
L 18.109375 54.6875 
L 18.109375 46.1875 
Q 20.953125 51.171875 25.484375 53.578125 
Q 30.03125 56 36.53125 56 
Q 37.453125 56 38.578125 55.875 
Q 39.703125 55.765625 41.0625 55.515625 
z
" id="DejaVuSans-114"/>
      <path d="M 34.28125 27.484375 
Q 23.390625 27.484375 19.1875 25 
Q 14.984375 22.515625 14.984375 16.5 
Q 14.984375 11.71875 18.140625 8.90625 
Q 21.296875 6.109375 26.703125 6.109375 
Q 34.1875 6.109375 38.703125 11.40625 
Q 43.21875 16.703125 43.21875 25.484375 
L 43.21875 27.484375 
z
M 52.203125 31.203125 
L 52.203125 0 
L 43.21875 0 
L 43.21875 8.296875 
Q 40.140625 3.328125 35.546875 0.953125 
Q 30.953125 -1.421875 24.3125 -1.421875 
Q 15.921875 -1.421875 10.953125 3.296875 
Q 6 8.015625 6 15.921875 
Q 6 25.140625 12.171875 29.828125 
Q 18.359375 34.515625 30.609375 34.515625 
L 43.21875 34.515625 
L 43.21875 35.40625 
Q 43.21875 41.609375 39.140625 45 
Q 35.0625 48.390625 27.6875 48.390625 
Q 23 48.390625 18.546875 47.265625 
Q 14.109375 46.140625 10.015625 43.890625 
L 10.015625 52.203125 
Q 14.9375 54.109375 19.578125 55.046875 
Q 24.21875 56 28.609375 56 
Q 40.484375 56 46.34375 49.84375 
Q 52.203125 43.703125 52.203125 31.203125 
z
" id="DejaVuSans-97"/>
      <path d="M 9.421875 54.6875 
L 18.40625 54.6875 
L 18.40625 0 
L 9.421875 0 
z
M 9.421875 75.984375 
L 18.40625 75.984375 
L 18.40625 64.59375 
L 9.421875 64.59375 
z
" id="DejaVuSans-105"/>
      <path d="M 54.890625 33.015625 
L 54.890625 0 
L 45.90625 0 
L 45.90625 32.71875 
Q 45.90625 40.484375 42.875 44.328125 
Q 39.84375 48.1875 33.796875 48.1875 
Q 26.515625 48.1875 22.3125 43.546875 
Q 18.109375 38.921875 18.109375 30.90625 
L 18.109375 0 
L 9.078125 0 
L 9.078125 54.6875 
L 18.109375 54.6875 
L 18.109375 46.1875 
Q 21.34375 51.125 25.703125 53.5625 
Q 30.078125 56 35.796875 56 
Q 45.21875 56 50.046875 50.171875 
Q 54.890625 44.34375 54.890625 33.015625 
z
" id="DejaVuSans-110"/>
      <path d="M 44.28125 53.078125 
L 44.28125 44.578125 
Q 40.484375 46.53125 36.375 47.5 
Q 32.28125 48.484375 27.875 48.484375 
Q 21.1875 48.484375 17.84375 46.4375 
Q 14.5 44.390625 14.5 40.28125 
Q 14.5 37.15625 16.890625 35.375 
Q 19.28125 33.59375 26.515625 31.984375 
L 29.59375 31.296875 
Q 39.15625 29.25 43.1875 25.515625 
Q 47.21875 21.78125 47.21875 15.09375 
Q 47.21875 7.46875 41.1875 3.015625 
Q 35.15625 -1.421875 24.609375 -1.421875 
Q 20.21875 -1.421875 15.453125 -0.5625 
Q 10.6875 0.296875 5.421875 2 
L 5.421875 11.28125 
Q 10.40625 8.6875 15.234375 7.390625 
Q 20.0625 6.109375 24.8125 6.109375 
Q 31.15625 6.109375 34.5625 8.28125 
Q 37.984375 10.453125 37.984375 14.40625 
Q 37.984375 18.0625 35.515625 20.015625 
Q 33.0625 21.96875 24.703125 23.78125 
L 21.578125 24.515625 
Q 13.234375 26.265625 9.515625 29.90625 
Q 5.8125 33.546875 5.8125 39.890625 
Q 5.8125 47.609375 11.28125 51.796875 
Q 16.75 56 26.8125 56 
Q 31.78125 56 36.171875 55.265625 
Q 40.578125 54.546875 44.28125 53.078125 
z
" id="DejaVuSans-115"/>
     </defs>
     <g transform="translate(197.549062 335.860562)scale(0.1 -0.1)">
      <use xlink:href="#DejaVuSans-78"/>
      <use x="74.804688" xlink:href="#DejaVuSans-111"/>
      <use x="135.986328" xlink:href="#DejaVuSans-32"/>
      <use x="167.773438" xlink:href="#DejaVuSans-111"/>
      <use x="228.955078" xlink:href="#DejaVuSans-102"/>
      <use x="264.160156" xlink:href="#DejaVuSans-32"/>
      <use x="295.947266" xlink:href="#DejaVuSans-73"/>
      <use x="325.439453" xlink:href="#DejaVuSans-116"/>
      <use x="364.648438" xlink:href="#DejaVuSans-101"/>
      <use x="426.171875" xlink:href="#DejaVuSans-114"/>
      <use x="467.285156" xlink:href="#DejaVuSans-97"/>
      <use x="528.564453" xlink:href="#DejaVuSans-116"/>
      <use x="567.773438" xlink:href="#DejaVuSans-105"/>
      <use x="595.556641" xlink:href="#DejaVuSans-111"/>
      <use x="656.738281" xlink:href="#DejaVuSans-110"/>
      <use x="720.117188" xlink:href="#DejaVuSans-115"/>
     </g>
    </g>
   </g>
   <g id="matplotlib.axis_2">
    <g id="ytick_1">
     <g id="line2d_10">
      <defs>
       <path d="M 0 0 
L -3.5 0 
" id="ma9496dd287" style="stroke:#000000;stroke-width:0.8;"/>
      </defs>
      <g>
       <use style="stroke:#000000;stroke-width:0.8;" x="57.6" xlink:href="#ma9496dd287" y="276.389053"/>
      </g>
     </g>
     <g id="text_11">
      <!-- 25 -->
      <g transform="translate(37.875 280.188271)scale(0.1 -0.1)">
       <use xlink:href="#DejaVuSans-50"/>
       <use x="63.623047" xlink:href="#DejaVuSans-53"/>
      </g>
     </g>
    </g>
    <g id="ytick_2">
     <g id="line2d_11">
      <g>
       <use style="stroke:#000000;stroke-width:0.8;" x="57.6" xlink:href="#ma9496dd287" y="244.557474"/>
      </g>
     </g>
     <g id="text_12">
      <!-- 50 -->
      <g transform="translate(37.875 248.356692)scale(0.1 -0.1)">
       <use xlink:href="#DejaVuSans-53"/>
       <use x="63.623047" xlink:href="#DejaVuSans-48"/>
      </g>
     </g>
    </g>
    <g id="ytick_3">
     <g id="line2d_12">
      <g>
       <use style="stroke:#000000;stroke-width:0.8;" x="57.6" xlink:href="#ma9496dd287" y="212.725895"/>
      </g>
     </g>
     <g id="text_13">
      <!-- 75 -->
      <g transform="translate(37.875 216.525113)scale(0.1 -0.1)">
       <use xlink:href="#DejaVuSans-55"/>
       <use x="63.623047" xlink:href="#DejaVuSans-53"/>
      </g>
     </g>
    </g>
    <g id="ytick_4">
     <g id="line2d_13">
      <g>
       <use style="stroke:#000000;stroke-width:0.8;" x="57.6" xlink:href="#ma9496dd287" y="180.894316"/>
      </g>
     </g>
     <g id="text_14">
      <!-- 100 -->
      <g transform="translate(31.5125 184.693535)scale(0.1 -0.1)">
       <use xlink:href="#DejaVuSans-49"/>
       <use x="63.623047" xlink:href="#DejaVuSans-48"/>
       <use x="127.246094" xlink:href="#DejaVuSans-48"/>
      </g>
     </g>
    </g>
    <g id="ytick_5">
     <g id="line2d_14">
      <g>
       <use style="stroke:#000000;stroke-width:0.8;" x="57.6" xlink:href="#ma9496dd287" y="149.062737"/>
      </g>
     </g>
     <g id="text_15">
      <!-- 125 -->
      <g transform="translate(31.5125 152.861956)scale(0.1 -0.1)">
       <use xlink:href="#DejaVuSans-49"/>
       <use x="63.623047" xlink:href="#DejaVuSans-50"/>
       <use x="127.246094" xlink:href="#DejaVuSans-53"/>
      </g>
     </g>
    </g>
    <g id="ytick_6">
     <g id="line2d_15">
      <g>
       <use style="stroke:#000000;stroke-width:0.8;" x="57.6" xlink:href="#ma9496dd287" y="117.231158"/>
      </g>
     </g>
     <g id="text_16">
      <!-- 150 -->
      <g transform="translate(31.5125 121.030377)scale(0.1 -0.1)">
       <use xlink:href="#DejaVuSans-49"/>
       <use x="63.623047" xlink:href="#DejaVuSans-53"/>
       <use x="127.246094" xlink:href="#DejaVuSans-48"/>
      </g>
     </g>
    </g>
    <g id="ytick_7">
     <g id="line2d_16">
      <g>
       <use style="stroke:#000000;stroke-width:0.8;" x="57.6" xlink:href="#ma9496dd287" y="85.399579"/>
      </g>
     </g>
     <g id="text_17">
      <!-- 175 -->
      <g transform="translate(31.5125 89.198798)scale(0.1 -0.1)">
       <use xlink:href="#DejaVuSans-49"/>
       <use x="63.623047" xlink:href="#DejaVuSans-55"/>
       <use x="127.246094" xlink:href="#DejaVuSans-53"/>
      </g>
     </g>
    </g>
    <g id="ytick_8">
     <g id="line2d_17">
      <g>
       <use style="stroke:#000000;stroke-width:0.8;" x="57.6" xlink:href="#ma9496dd287" y="53.568"/>
      </g>
     </g>
     <g id="text_18">
      <!-- 200 -->
      <g transform="translate(31.5125 57.367219)scale(0.1 -0.1)">
       <use xlink:href="#DejaVuSans-50"/>
       <use x="63.623047" xlink:href="#DejaVuSans-48"/>
       <use x="127.246094" xlink:href="#DejaVuSans-48"/>
      </g>
     </g>
    </g>
    <g id="text_19">
     <!-- Reward -->
     <defs>
      <path d="M 44.390625 34.1875 
Q 47.5625 33.109375 50.5625 29.59375 
Q 53.5625 26.078125 56.59375 19.921875 
L 66.609375 0 
L 56 0 
L 46.6875 18.703125 
Q 43.0625 26.03125 39.671875 28.421875 
Q 36.28125 30.8125 30.421875 30.8125 
L 19.671875 30.8125 
L 19.671875 0 
L 9.8125 0 
L 9.8125 72.90625 
L 32.078125 72.90625 
Q 44.578125 72.90625 50.734375 67.671875 
Q 56.890625 62.453125 56.890625 51.90625 
Q 56.890625 45.015625 53.6875 40.46875 
Q 50.484375 35.9375 44.390625 34.1875 
z
M 19.671875 64.796875 
L 19.671875 38.921875 
L 32.078125 38.921875 
Q 39.203125 38.921875 42.84375 42.21875 
Q 46.484375 45.515625 46.484375 51.90625 
Q 46.484375 58.296875 42.84375 61.546875 
Q 39.203125 64.796875 32.078125 64.796875 
z
" id="DejaVuSans-82"/>
      <path d="M 4.203125 54.6875 
L 13.1875 54.6875 
L 24.421875 12.015625 
L 35.59375 54.6875 
L 46.1875 54.6875 
L 57.421875 12.015625 
L 68.609375 54.6875 
L 77.59375 54.6875 
L 63.28125 0 
L 52.6875 0 
L 40.921875 44.828125 
L 29.109375 0 
L 18.5 0 
z
" id="DejaVuSans-119"/>
      <path d="M 45.40625 46.390625 
L 45.40625 75.984375 
L 54.390625 75.984375 
L 54.390625 0 
L 45.40625 0 
L 45.40625 8.203125 
Q 42.578125 3.328125 38.25 0.953125 
Q 33.9375 -1.421875 27.875 -1.421875 
Q 17.96875 -1.421875 11.734375 6.484375 
Q 5.515625 14.40625 5.515625 27.296875 
Q 5.515625 40.1875 11.734375 48.09375 
Q 17.96875 56 27.875 56 
Q 33.9375 56 38.25 53.625 
Q 42.578125 51.265625 45.40625 46.390625 
z
M 14.796875 27.296875 
Q 14.796875 17.390625 18.875 11.75 
Q 22.953125 6.109375 30.078125 6.109375 
Q 37.203125 6.109375 41.296875 11.75 
Q 45.40625 17.390625 45.40625 27.296875 
Q 45.40625 37.203125 41.296875 42.84375 
Q 37.203125 48.484375 30.078125 48.484375 
Q 22.953125 48.484375 18.875 42.84375 
Q 14.796875 37.203125 14.796875 27.296875 
z
" id="DejaVuSans-100"/>
     </defs>
     <g transform="translate(25.432812 193.457687)rotate(-90)scale(0.1 -0.1)">
      <use xlink:href="#DejaVuSans-82"/>
      <use x="69.419922" xlink:href="#DejaVuSans-101"/>
      <use x="130.943359" xlink:href="#DejaVuSans-119"/>
      <use x="212.730469" xlink:href="#DejaVuSans-97"/>
      <use x="274.009766" xlink:href="#DejaVuSans-114"/>
      <use x="315.107422" xlink:href="#DejaVuSans-100"/>
     </g>
    </g>
   </g>
   <g id="line2d_18">
    <path clip-path="url(#p543d3ec92d)" d="M 73.832727 292.941474 
L 73.995136 295.488 
L 74.157544 290.394947 
L 74.319953 291.668211 
L 74.482361 291.668211 
L 74.64477 295.488 
L 74.807178 291.668211 
L 74.969587 295.488 
L 75.131995 294.214737 
L 75.294404 295.488 
L 75.456812 286.575158 
L 75.619221 295.488 
L 75.781629 295.488 
L 75.944037 294.214737 
L 76.106446 287.848421 
L 76.268854 287.848421 
L 76.593671 280.208842 
L 76.75608 294.214737 
L 77.080897 272.569263 
L 77.243305 278.935579 
L 77.405714 273.842526 
L 77.568122 210.179368 
L 77.730531 253.470316 
L 77.892939 256.016842 
L 78.055348 164.341895 
L 78.217756 249.650526 
L 78.380165 250.923789 
L 78.542573 287.848421 
L 78.704982 242.010947 
L 78.86739 280.208842 
L 79.192207 275.115789 
L 79.354615 281.482105 
L 79.517024 266.202947 
L 79.679432 289.121684 
L 80.004249 275.115789 
L 80.166658 290.394947 
L 80.491475 280.208842 
L 80.653883 275.115789 
L 80.816292 289.121684 
L 80.9787 281.482105 
L 81.141109 287.848421 
L 81.465926 271.296 
L 81.628334 284.028632 
L 81.790743 280.208842 
L 81.953151 263.656421 
L 82.11556 278.935579 
L 82.277968 277.662316 
L 82.602785 272.569263 
L 82.765194 273.842526 
L 82.927602 259.836632 
L 83.09001 284.028632 
L 83.252419 263.656421 
L 83.414827 270.022737 
L 83.739644 240.737684 
L 83.902053 249.650526 
L 84.064461 225.458526 
L 84.22687 267.476211 
L 84.389278 239.464421 
L 84.551687 261.109895 
L 84.714095 205.086316 
L 84.876504 231.824842 
L 85.038912 236.917895 
L 85.363729 198.72 
L 85.526138 229.278316 
L 85.688546 230.551579 
L 85.850955 192.353684 
L 86.013363 217.818947 
L 86.175772 196.173474 
L 86.33818 239.464421 
L 86.500588 222.912 
L 86.662997 247.104 
L 86.987814 199.993263 
L 87.150222 224.185263 
L 87.637448 252.197053 
L 87.799856 175.801263 
L 87.962265 215.272421 
L 88.124673 222.912 
L 88.287082 222.912 
L 88.44949 193.626947 
L 88.611899 250.923789 
L 88.774307 202.539789 
L 88.936716 253.470316 
L 89.099124 248.377263 
L 89.261533 213.999158 
L 89.423941 219.092211 
L 89.58635 157.975579 
L 89.911166 254.743579 
L 90.073575 256.016842 
L 90.235983 259.836632 
L 90.398392 203.813053 
L 90.5608 245.830737 
L 90.723209 245.830737 
L 90.885617 196.173474 
L 91.048026 202.539789 
L 91.210434 197.446737 
L 91.372843 183.440842 
L 91.535251 245.830737 
L 91.69766 206.359579 
L 92.022477 248.377263 
L 92.184885 221.638737 
L 92.347294 136.330105 
L 92.509702 247.104 
L 92.672111 247.104 
L 92.834519 216.545684 
L 92.996928 215.272421 
L 93.159336 256.016842 
L 93.321745 252.197053 
L 93.484153 221.638737 
L 93.80897 221.638737 
L 93.971378 210.179368 
L 94.133787 208.906105 
L 94.296195 187.260632 
L 94.621012 238.191158 
L 94.783421 173.254737 
L 94.945829 245.830737 
L 95.108238 99.405474 
L 95.270646 217.818947 
L 95.433055 193.626947 
L 95.595463 203.813053 
L 95.757872 156.702316 
L 95.92028 229.278316 
L 96.082689 152.882526 
L 96.245097 212.725895 
L 96.407506 193.626947 
L 96.569914 151.609263 
L 96.732323 217.818947 
L 97.057139 199.993263 
L 97.219548 53.568 
L 97.381956 191.080421 
L 97.544365 142.696421 
L 97.706773 193.626947 
L 97.869182 207.632842 
L 98.03159 231.824842 
L 98.356407 151.609263 
L 98.518816 221.638737 
L 98.681224 239.464421 
L 98.843633 225.458526 
L 99.006041 236.917895 
L 99.16845 198.72 
L 99.493267 230.551579 
L 99.655675 192.353684 
L 99.818084 243.284211 
L 99.980492 225.458526 
L 100.142901 225.458526 
L 100.305309 224.185263 
L 100.467717 208.906105 
L 100.630126 233.098105 
L 100.792534 196.173474 
L 100.954943 220.365474 
L 101.117351 219.092211 
L 101.27976 216.545684 
L 101.442168 231.824842 
L 101.766985 216.545684 
L 101.929394 240.737684 
L 102.254211 196.173474 
L 102.416619 244.557474 
L 102.579028 207.632842 
L 102.741436 242.010947 
L 102.903845 231.824842 
L 103.066253 231.824842 
L 103.228662 242.010947 
L 103.39107 239.464421 
L 103.553479 212.725895 
L 103.715887 228.005053 
L 104.040704 270.022737 
L 104.203112 243.284211 
L 104.365521 258.563368 
L 104.527929 233.098105 
L 104.690338 259.836632 
L 104.852746 249.650526 
L 105.015155 257.290105 
L 105.177563 254.743579 
L 105.339972 287.848421 
L 105.50238 242.010947 
L 105.664789 243.284211 
L 105.827197 259.836632 
L 105.989606 261.109895 
L 106.152014 267.476211 
L 106.314423 258.563368 
L 106.476831 282.755368 
L 106.63924 249.650526 
L 106.801648 250.923789 
L 106.964057 263.656421 
L 107.126465 259.836632 
L 107.288874 263.656421 
L 107.61369 282.755368 
L 107.938507 272.569263 
L 108.100916 257.290105 
L 108.263324 262.383158 
L 108.425733 252.197053 
L 108.75055 275.115789 
L 108.912958 257.290105 
L 109.075367 268.749474 
L 109.237775 266.202947 
L 109.400184 254.743579 
L 109.562592 266.202947 
L 109.887409 254.743579 
L 110.049818 263.656421 
L 110.212226 258.563368 
L 110.537043 266.202947 
L 110.86186 239.464421 
L 111.024268 243.284211 
L 111.186677 231.824842 
L 111.511494 254.743579 
L 111.673902 245.830737 
L 111.836311 216.545684 
L 111.998719 234.371368 
L 112.161128 225.458526 
L 112.323536 222.912 
L 112.485945 236.917895 
L 112.648353 205.086316 
L 112.97317 229.278316 
L 113.135579 211.452632 
L 113.297987 229.278316 
L 113.460396 224.185263 
L 113.622804 208.906105 
L 113.785213 217.818947 
L 113.947621 189.807158 
L 114.11003 211.452632 
L 114.272438 212.725895 
L 114.434847 203.813053 
L 114.597255 208.906105 
L 114.759663 228.005053 
L 114.922072 185.987368 
L 115.08448 188.533895 
L 115.409297 199.993263 
L 115.571706 201.266526 
L 115.734114 138.876632 
L 115.896523 213.999158 
L 116.058931 205.086316 
L 116.22134 222.912 
L 116.383748 194.900211 
L 116.546157 224.185263 
L 116.708565 189.807158 
L 116.870974 216.545684 
L 117.033382 221.638737 
L 117.358199 179.621053 
L 117.520608 203.813053 
L 117.683016 177.074526 
L 117.845425 222.912 
L 118.007833 210.179368 
L 118.170241 221.638737 
L 118.33265 160.522105 
L 118.495058 220.365474 
L 118.657467 80.306526 
L 118.819875 203.813053 
L 118.982284 224.185263 
L 119.469509 160.522105 
L 119.794326 207.632842 
L 119.956735 212.725895 
L 120.119143 142.696421 
L 120.281552 208.906105 
L 120.44396 210.179368 
L 120.606369 68.847158 
L 120.931186 182.167579 
L 121.093594 146.516211 
L 121.256003 170.708211 
L 121.418411 128.690526 
L 121.58082 179.621053 
L 121.743228 178.347789 
L 122.068045 194.900211 
L 122.230453 110.864842 
L 122.392862 198.72 
L 122.55527 132.510316 
L 122.717679 170.708211 
L 122.880087 117.231158 
L 123.042496 219.092211 
L 123.204904 170.708211 
L 123.367313 196.173474 
L 123.529721 105.771789 
L 123.69213 149.062737 
L 123.854538 53.568 
L 124.179355 194.900211 
L 124.341764 205.086316 
L 124.504172 161.795368 
L 124.666581 222.912 
L 124.991398 203.813053 
L 125.153806 208.906105 
L 125.316214 129.963789 
L 125.478623 203.813053 
L 125.641031 213.999158 
L 125.80344 183.440842 
L 125.965848 90.492632 
L 126.128257 206.359579 
L 126.290665 207.632842 
L 126.453074 166.888421 
L 126.615482 222.912 
L 126.940299 236.917895 
L 127.265116 140.149895 
L 127.427525 228.005053 
L 127.589933 198.72 
L 127.752342 216.545684 
L 127.91475 149.062737 
L 128.077159 224.185263 
L 128.239567 230.551579 
L 128.564384 178.347789 
L 128.726792 82.853053 
L 128.889201 201.266526 
L 129.051609 203.813053 
L 129.214018 196.173474 
L 129.376426 239.464421 
L 129.538835 230.551579 
L 129.701243 122.324211 
L 130.02606 231.824842 
L 130.188469 220.365474 
L 130.350877 224.185263 
L 130.513286 224.185263 
L 130.675694 199.993263 
L 130.838103 233.098105 
L 131.000511 217.818947 
L 131.16292 154.155789 
L 131.325328 178.347789 
L 131.487737 177.074526 
L 131.650145 234.371368 
L 131.812554 207.632842 
L 131.974962 253.470316 
L 132.137371 244.557474 
L 132.299779 250.923789 
L 132.462187 245.830737 
L 132.624596 249.650526 
L 132.787004 199.993263 
L 132.949413 225.458526 
L 133.111821 211.452632 
L 133.27423 253.470316 
L 133.436638 233.098105 
L 133.599047 228.005053 
L 133.761455 216.545684 
L 133.923864 247.104 
L 134.086272 248.377263 
L 134.248681 215.272421 
L 134.411089 206.359579 
L 134.573498 231.824842 
L 135.060723 170.708211 
L 135.223132 197.446737 
L 135.38554 196.173474 
L 135.547949 222.912 
L 135.710357 211.452632 
L 135.872765 245.830737 
L 136.197582 201.266526 
L 136.359991 244.557474 
L 136.522399 220.365474 
L 136.684808 217.818947 
L 136.847216 217.818947 
L 137.009625 178.347789 
L 137.172033 219.092211 
L 137.334442 225.458526 
L 137.49685 215.272421 
L 137.659259 226.731789 
L 137.821667 225.458526 
L 137.984076 174.528 
L 138.146484 233.098105 
L 138.308893 220.365474 
L 138.471301 230.551579 
L 138.63371 201.266526 
L 138.796118 135.056842 
L 139.120935 197.446737 
L 139.283343 212.725895 
L 139.770569 110.864842 
L 139.932977 67.573895 
L 140.095386 126.144 
L 140.257794 53.568 
L 141.069837 53.568 
L 141.232245 77.76 
L 141.394654 53.568 
L 141.557062 135.056842 
L 141.719471 132.510316 
L 141.881879 124.870737 
L 142.044288 197.446737 
L 142.206696 152.882526 
L 142.531513 188.533895 
L 142.693922 187.260632 
L 142.85633 194.900211 
L 143.181147 226.731789 
L 143.343555 173.254737 
L 143.505964 219.092211 
L 143.668372 219.092211 
L 143.993189 202.539789 
L 144.155598 211.452632 
L 144.318006 199.993263 
L 144.480415 236.917895 
L 144.642823 208.906105 
L 144.805232 230.551579 
L 144.96764 205.086316 
L 145.130049 198.72 
L 145.454866 231.824842 
L 145.617274 224.185263 
L 145.779683 238.191158 
L 145.942091 201.266526 
L 146.1045 202.539789 
L 146.266908 211.452632 
L 146.429316 230.551579 
L 146.591725 220.365474 
L 146.754133 191.080421 
L 147.241359 228.005053 
L 147.403767 221.638737 
L 147.566176 183.440842 
L 147.728584 193.626947 
L 147.890993 217.818947 
L 148.053401 224.185263 
L 148.21581 163.068632 
L 148.378218 216.545684 
L 148.540627 212.725895 
L 148.703035 196.173474 
L 148.865444 156.702316 
L 149.027852 203.813053 
L 149.190261 191.080421 
L 149.352669 199.993263 
L 149.515078 155.429053 
L 149.839894 197.446737 
L 150.002303 177.074526 
L 150.32712 202.539789 
L 150.489528 203.813053 
L 150.651937 159.248842 
L 150.814345 157.975579 
L 150.976754 179.621053 
L 151.139162 142.696421 
L 151.301571 160.522105 
L 151.463979 154.155789 
L 151.626388 98.132211 
L 151.788796 142.696421 
L 151.951205 82.853053 
L 152.113613 142.696421 
L 152.276022 99.405474 
L 152.43843 124.870737 
L 152.600839 124.870737 
L 152.763247 117.231158 
L 153.088064 157.975579 
L 153.575289 101.952 
L 153.737698 53.568 
L 153.900106 99.405474 
L 154.062515 53.568 
L 165.431108 53.568 
L 165.755925 68.847158 
L 165.918334 59.934316 
L 166.080742 66.300632 
L 166.405559 53.568 
L 168.192052 53.568 
L 168.354461 169.434947 
L 168.516869 147.789474 
L 168.679278 177.074526 
L 168.841686 169.434947 
L 169.166503 184.714105 
L 169.328912 178.347789 
L 169.49132 182.167579 
L 169.653729 173.254737 
L 169.816137 174.528 
L 169.978546 259.836632 
L 170.140954 180.894316 
L 170.303363 183.440842 
L 170.465771 178.347789 
L 170.62818 178.347789 
L 170.790588 263.656421 
L 170.952996 191.080421 
L 171.277813 179.621053 
L 171.440222 180.894316 
L 171.60263 266.202947 
L 171.765039 182.167579 
L 171.927447 184.714105 
L 172.089856 174.528 
L 172.252264 184.714105 
L 172.414673 178.347789 
L 172.577081 263.656421 
L 172.73949 175.801263 
L 172.901898 166.888421 
L 173.064307 184.714105 
L 173.226715 177.074526 
L 173.389124 184.714105 
L 173.551532 164.341895 
L 173.713941 180.894316 
L 173.876349 180.894316 
L 174.038758 70.120421 
L 174.201166 70.120421 
L 174.363575 191.080421 
L 174.525983 61.207579 
L 174.688391 53.568 
L 175.013208 61.207579 
L 175.175617 192.353684 
L 175.338025 65.027368 
L 175.500434 72.666947 
L 175.662842 68.847158 
L 175.825251 171.981474 
L 175.987659 66.300632 
L 176.150068 56.114526 
L 176.312476 160.522105 
L 176.474885 168.161684 
L 176.637293 164.341895 
L 176.799702 177.074526 
L 177.124519 169.434947 
L 177.286927 175.801263 
L 177.449336 170.708211 
L 177.774153 174.528 
L 177.936561 183.440842 
L 178.098969 182.167579 
L 178.261378 179.621053 
L 178.423786 180.894316 
L 178.586195 179.621053 
L 178.748603 189.807158 
L 179.07342 180.894316 
L 179.235829 169.434947 
L 179.560646 183.440842 
L 179.723054 174.528 
L 179.885463 178.347789 
L 180.047871 188.533895 
L 180.21028 184.714105 
L 180.372688 184.714105 
L 180.535097 179.621053 
L 180.697505 188.533895 
L 180.859914 175.801263 
L 181.022322 179.621053 
L 181.184731 171.981474 
L 181.347139 183.440842 
L 181.509548 185.987368 
L 181.671956 173.254737 
L 181.996773 185.987368 
L 182.32159 178.347789 
L 182.483998 178.347789 
L 182.646407 184.714105 
L 182.808815 185.987368 
L 182.971224 185.987368 
L 183.133632 177.074526 
L 183.296041 180.894316 
L 183.458449 244.557474 
L 183.620858 185.987368 
L 183.783266 258.563368 
L 183.945675 252.197053 
L 184.108083 256.016842 
L 184.270492 182.167579 
L 184.4329 254.743579 
L 184.595309 267.476211 
L 184.757717 263.656421 
L 184.920126 264.929684 
L 185.244942 250.923789 
L 185.407351 270.022737 
L 185.732168 259.836632 
L 185.894576 261.109895 
L 186.056985 257.290105 
L 186.219393 257.290105 
L 186.381802 262.383158 
L 186.54421 253.470316 
L 186.706619 258.563368 
L 186.869027 270.022737 
L 187.031436 257.290105 
L 187.193844 266.202947 
L 187.356253 183.440842 
L 187.518661 267.476211 
L 187.68107 266.202947 
L 187.843478 250.923789 
L 188.005887 276.389053 
L 188.168295 270.022737 
L 188.330704 187.260632 
L 188.493112 192.353684 
L 188.65552 253.470316 
L 188.817929 258.563368 
L 188.980337 180.894316 
L 189.142746 184.714105 
L 189.305154 177.074526 
L 189.467563 249.650526 
L 189.629971 184.714105 
L 189.79238 184.714105 
L 190.117197 188.533895 
L 190.279605 177.074526 
L 190.766831 188.533895 
L 191.091648 170.708211 
L 191.416465 179.621053 
L 191.578873 178.347789 
L 191.741282 184.714105 
L 191.90369 183.440842 
L 192.066099 165.615158 
L 192.228507 182.167579 
L 192.390915 245.830737 
L 192.553324 179.621053 
L 192.715732 165.615158 
L 193.040549 182.167579 
L 193.202958 236.917895 
L 193.527775 169.434947 
L 193.690183 248.377263 
L 193.852592 222.912 
L 194.015 166.888421 
L 194.177409 239.464421 
L 194.339817 173.254737 
L 194.502226 184.714105 
L 194.664634 171.981474 
L 194.827043 177.074526 
L 194.989451 177.074526 
L 195.314268 161.795368 
L 195.476677 182.167579 
L 195.639085 166.888421 
L 195.801493 180.894316 
L 195.963902 164.341895 
L 196.12631 173.254737 
L 196.288719 170.708211 
L 196.451127 183.440842 
L 196.775944 161.795368 
L 196.938353 163.068632 
L 197.100761 171.981474 
L 197.26317 160.522105 
L 197.425578 178.347789 
L 197.587987 175.801263 
L 197.750395 183.440842 
L 197.912804 160.522105 
L 198.075212 161.795368 
L 198.400029 180.894316 
L 198.562438 161.795368 
L 198.724846 160.522105 
L 198.887255 164.341895 
L 199.049663 177.074526 
L 199.536888 160.522105 
L 199.699297 161.795368 
L 200.024114 175.801263 
L 200.186522 174.528 
L 200.348931 169.434947 
L 200.511339 168.161684 
L 200.673748 177.074526 
L 200.998565 161.795368 
L 201.160973 171.981474 
L 201.323382 166.888421 
L 201.48579 169.434947 
L 201.648199 164.341895 
L 201.973016 175.801263 
L 202.135424 173.254737 
L 202.297833 177.074526 
L 202.460241 165.615158 
L 202.62265 187.260632 
L 202.785058 170.708211 
L 203.109875 174.528 
L 203.272283 187.260632 
L 203.434692 171.981474 
L 203.5971 259.836632 
L 203.759509 171.981474 
L 203.921917 175.801263 
L 204.084326 184.714105 
L 204.246734 173.254737 
L 204.409143 185.987368 
L 204.73396 174.528 
L 204.896368 187.260632 
L 205.221185 166.888421 
L 205.383594 166.888421 
L 205.870819 183.440842 
L 206.033228 179.621053 
L 206.195636 170.708211 
L 206.358044 188.533895 
L 206.520453 171.981474 
L 206.682861 171.981474 
L 207.007678 187.260632 
L 207.170087 238.191158 
L 207.332495 184.714105 
L 207.494904 250.923789 
L 207.657312 248.377263 
L 207.819721 178.347789 
L 207.982129 249.650526 
L 208.144538 252.197053 
L 208.469355 236.917895 
L 208.631763 179.621053 
L 208.794172 183.440842 
L 208.95658 191.080421 
L 209.118989 191.080421 
L 209.281397 249.650526 
L 209.443806 245.830737 
L 209.606214 257.290105 
L 209.768622 256.016842 
L 209.931031 178.347789 
L 210.093439 256.016842 
L 210.255848 178.347789 
L 210.418256 171.981474 
L 210.580665 187.260632 
L 210.743073 174.528 
L 210.905482 244.557474 
L 211.06789 231.824842 
L 211.230299 183.440842 
L 211.392707 249.650526 
L 211.555116 174.528 
L 211.717524 182.167579 
L 211.879933 244.557474 
L 212.042341 185.987368 
L 212.20475 249.650526 
L 212.367158 180.894316 
L 212.529567 187.260632 
L 212.691975 184.714105 
L 213.016792 187.260632 
L 213.179201 189.807158 
L 213.341609 184.714105 
L 213.504017 173.254737 
L 213.666426 258.563368 
L 213.828834 247.104 
L 213.991243 184.714105 
L 214.153651 256.016842 
L 214.31606 185.987368 
L 214.478468 258.563368 
L 214.640877 252.197053 
L 214.803285 259.836632 
L 214.965694 240.737684 
L 215.128102 263.656421 
L 215.290511 261.109895 
L 215.452919 253.470316 
L 215.940145 267.476211 
L 216.102553 193.626947 
L 216.264962 245.830737 
L 216.42737 188.533895 
L 216.589779 252.197053 
L 216.752187 256.016842 
L 216.914595 272.569263 
L 217.077004 189.807158 
L 217.239412 182.167579 
L 217.401821 180.894316 
L 217.564229 261.109895 
L 217.726638 175.801263 
L 218.051455 188.533895 
L 218.213863 179.621053 
L 218.376272 182.167579 
L 218.53868 178.347789 
L 218.701089 188.533895 
L 218.863497 185.987368 
L 219.188314 164.341895 
L 219.350723 174.528 
L 219.513131 165.615158 
L 219.67554 163.068632 
L 219.837948 154.155789 
L 220.000357 155.429053 
L 220.162765 151.609263 
L 220.487582 131.237053 
L 220.64999 146.516211 
L 220.812399 53.568 
L 222.111667 53.568 
L 222.274075 143.969684 
L 222.436484 154.155789 
L 222.598892 146.516211 
L 222.761301 159.248842 
L 222.923709 163.068632 
L 223.086118 159.248842 
L 223.248526 174.528 
L 223.735752 166.888421 
L 223.89816 173.254737 
L 224.060568 166.888421 
L 224.222977 166.888421 
L 224.547794 178.347789 
L 224.710202 175.801263 
L 224.872611 175.801263 
L 225.035019 173.254737 
L 225.197428 182.167579 
L 225.359836 183.440842 
L 225.684653 171.981474 
L 225.847062 185.987368 
L 226.171879 180.894316 
L 226.334287 189.807158 
L 226.496696 183.440842 
L 226.821513 191.080421 
L 226.983921 177.074526 
L 227.14633 191.080421 
L 227.308738 191.080421 
L 227.471146 180.894316 
L 227.633555 256.016842 
L 227.795963 249.650526 
L 227.958372 191.080421 
L 228.283189 179.621053 
L 228.445597 189.807158 
L 228.608006 175.801263 
L 228.770414 254.743579 
L 228.932823 252.197053 
L 229.095231 187.260632 
L 229.25764 192.353684 
L 229.582457 185.987368 
L 229.744865 257.290105 
L 229.907274 173.254737 
L 230.069682 174.528 
L 230.232091 182.167579 
L 230.394499 173.254737 
L 230.556908 188.533895 
L 230.719316 185.987368 
L 230.881724 185.987368 
L 231.044133 179.621053 
L 231.206541 180.894316 
L 231.36895 180.894316 
L 231.531358 183.440842 
L 231.693767 188.533895 
L 231.856175 182.167579 
L 232.018584 185.987368 
L 232.180992 185.987368 
L 232.343401 183.440842 
L 232.505809 185.987368 
L 232.668218 183.440842 
L 232.830626 183.440842 
L 232.993035 182.167579 
L 233.155443 184.714105 
L 233.317852 178.347789 
L 233.48026 179.621053 
L 233.642669 177.074526 
L 233.805077 177.074526 
L 233.967486 187.260632 
L 234.129894 185.987368 
L 234.292303 174.528 
L 234.454711 175.801263 
L 234.617119 170.708211 
L 234.779528 185.987368 
L 234.941936 170.708211 
L 235.104345 168.161684 
L 235.266753 177.074526 
L 235.429162 169.434947 
L 235.59157 174.528 
L 235.753979 171.981474 
L 235.916387 175.801263 
L 236.078796 174.528 
L 236.241204 165.615158 
L 236.403613 171.981474 
L 236.566021 157.975579 
L 236.72843 175.801263 
L 237.215655 161.795368 
L 237.378064 152.882526 
L 237.540472 154.155789 
L 237.702881 163.068632 
L 237.865289 147.789474 
L 238.027697 163.068632 
L 238.190106 147.789474 
L 238.352514 146.516211 
L 238.514923 160.522105 
L 238.677331 155.429053 
L 238.83974 133.783579 
L 239.002148 160.522105 
L 239.326965 132.510316 
L 239.489374 129.963789 
L 239.814191 143.969684 
L 239.976599 90.492632 
L 240.139008 112.138105 
L 240.301416 114.684632 
L 240.463825 53.568 
L 240.626233 53.568 
L 240.788642 101.952 
L 240.95105 53.568 
L 241.113459 53.568 
L 241.275867 105.771789 
L 241.438276 53.568 
L 241.763092 53.568 
L 241.925501 110.864842 
L 242.087909 53.568 
L 242.575135 53.568 
L 242.737543 122.324211 
L 242.899952 123.597474 
L 243.06236 137.603368 
L 243.224769 109.591579 
L 243.549586 146.516211 
L 243.711994 127.417263 
L 244.19922 156.702316 
L 244.361628 135.056842 
L 244.524037 152.882526 
L 244.686445 135.056842 
L 244.848854 135.056842 
L 245.011262 147.789474 
L 245.336079 132.510316 
L 245.498487 151.609263 
L 245.660896 137.603368 
L 245.823304 146.516211 
L 245.985713 104.498526 
L 246.148121 136.330105 
L 246.31053 112.138105 
L 246.472938 129.963789 
L 246.635347 53.568 
L 246.797755 53.568 
L 246.960164 138.876632 
L 247.284981 53.568 
L 247.447389 53.568 
L 247.609798 109.591579 
L 247.772206 53.568 
L 248.746657 53.568 
L 248.909065 128.690526 
L 249.071474 53.568 
L 249.233882 137.603368 
L 249.396291 115.957895 
L 249.558699 121.050947 
L 249.721108 94.312421 
L 249.883516 131.237053 
L 250.045925 118.504421 
L 250.208333 119.777684 
L 250.370742 142.696421 
L 250.53315 149.062737 
L 250.695559 132.510316 
L 250.857967 132.510316 
L 251.020376 105.771789 
L 251.182784 115.957895 
L 251.345193 142.696421 
L 251.67001 113.411368 
L 251.832418 119.777684 
L 252.157235 152.882526 
L 252.319643 115.957895 
L 252.482052 151.609263 
L 252.64446 156.702316 
L 252.806869 150.336 
L 252.969277 149.062737 
L 253.131686 123.597474 
L 253.294094 161.795368 
L 253.618911 149.062737 
L 253.78132 132.510316 
L 253.943728 133.783579 
L 254.106137 141.423158 
L 254.430954 165.615158 
L 254.593362 147.789474 
L 254.755771 164.341895 
L 254.918179 154.155789 
L 255.080588 159.248842 
L 255.242996 132.510316 
L 255.405405 159.248842 
L 255.567813 145.242947 
L 255.730221 146.516211 
L 256.055038 174.528 
L 256.217447 159.248842 
L 256.379855 173.254737 
L 256.542264 160.522105 
L 256.704672 170.708211 
L 256.867081 155.429053 
L 257.029489 173.254737 
L 257.354306 140.149895 
L 257.516715 137.603368 
L 257.679123 173.254737 
L 257.841532 160.522105 
L 258.00394 173.254737 
L 258.166349 143.969684 
L 258.328757 161.795368 
L 258.653574 123.597474 
L 258.815983 168.161684 
L 258.978391 133.783579 
L 259.140799 126.144 
L 259.303208 166.888421 
L 259.465616 129.963789 
L 259.628025 169.434947 
L 259.790433 160.522105 
L 260.11525 127.417263 
L 260.277659 155.429053 
L 260.602476 171.981474 
L 260.764884 129.963789 
L 260.927293 149.062737 
L 261.089701 133.783579 
L 261.414518 178.347789 
L 261.576927 164.341895 
L 261.901744 175.801263 
L 262.226561 175.801263 
L 262.551378 165.615158 
L 262.713786 149.062737 
L 262.876194 151.609263 
L 263.038603 170.708211 
L 263.201011 170.708211 
L 263.36342 178.347789 
L 263.525828 155.429053 
L 263.850645 197.446737 
L 264.175462 207.632842 
L 264.337871 149.062737 
L 264.500279 207.632842 
L 264.825096 184.714105 
L 264.987505 205.086316 
L 265.149913 163.068632 
L 265.312322 171.981474 
L 265.47473 174.528 
L 265.637139 154.155789 
L 265.961956 206.359579 
L 266.124364 196.173474 
L 266.286772 206.359579 
L 266.449181 149.062737 
L 266.611589 206.359579 
L 266.936406 178.347789 
L 267.098815 182.167579 
L 267.261223 135.056842 
L 267.58604 205.086316 
L 267.748449 147.789474 
L 267.910857 146.516211 
L 268.073266 123.597474 
L 268.235674 178.347789 
L 268.398083 194.900211 
L 268.560491 152.882526 
L 268.7229 175.801263 
L 268.885308 141.423158 
L 269.047717 163.068632 
L 269.372534 163.068632 
L 269.534942 155.429053 
L 269.69735 180.894316 
L 269.859759 179.621053 
L 270.022167 165.615158 
L 270.184576 175.801263 
L 270.346984 133.783579 
L 270.509393 173.254737 
L 270.671801 166.888421 
L 270.83421 169.434947 
L 270.996618 135.056842 
L 271.159027 174.528 
L 271.321435 154.155789 
L 271.483844 170.708211 
L 271.646252 170.708211 
L 271.808661 169.434947 
L 271.971069 157.975579 
L 272.133478 159.248842 
L 272.295886 157.975579 
L 272.458295 164.341895 
L 272.620703 152.882526 
L 272.783112 170.708211 
L 272.94552 159.248842 
L 273.107929 160.522105 
L 273.270337 169.434947 
L 273.432745 129.963789 
L 273.595154 159.248842 
L 273.757562 168.161684 
L 273.919971 131.237053 
L 274.244788 168.161684 
L 274.569605 157.975579 
L 274.732013 117.231158 
L 274.894422 154.155789 
L 275.05683 165.615158 
L 275.219239 154.155789 
L 275.381647 157.975579 
L 275.544056 154.155789 
L 275.706464 135.056842 
L 275.868873 160.522105 
L 276.031281 168.161684 
L 276.19369 168.161684 
L 276.356098 108.318316 
L 276.518507 141.423158 
L 276.680915 122.324211 
L 276.843323 118.504421 
L 277.005732 163.068632 
L 277.16814 160.522105 
L 277.330549 155.429053 
L 277.492957 98.132211 
L 277.655366 163.068632 
L 277.817774 103.225263 
L 277.980183 146.516211 
L 278.142591 136.330105 
L 278.305 143.969684 
L 278.467408 91.765895 
L 278.792225 146.516211 
L 278.954634 133.783579 
L 279.117042 143.969684 
L 279.279451 94.312421 
L 279.441859 164.341895 
L 279.604268 165.615158 
L 279.766676 140.149895 
L 279.929085 168.161684 
L 280.091493 104.498526 
L 280.253901 154.155789 
L 280.578718 124.870737 
L 280.741127 156.702316 
L 281.065944 109.591579 
L 281.228352 161.795368 
L 281.390761 157.975579 
L 281.553169 108.318316 
L 281.877986 161.795368 
L 282.040395 142.696421 
L 282.202803 160.522105 
L 282.365212 145.242947 
L 282.690029 168.161684 
L 282.852437 127.417263 
L 283.014846 128.690526 
L 283.177254 146.516211 
L 283.339663 146.516211 
L 283.502071 127.417263 
L 283.826888 140.149895 
L 283.989296 156.702316 
L 284.151705 151.609263 
L 284.314113 165.615158 
L 284.476522 141.423158 
L 284.63893 133.783579 
L 284.801339 173.254737 
L 284.963747 178.347789 
L 285.288564 114.684632 
L 285.450973 138.876632 
L 285.613381 143.969684 
L 285.77579 152.882526 
L 285.938198 136.330105 
L 286.100607 155.429053 
L 286.425424 136.330105 
L 286.587832 168.161684 
L 286.750241 159.248842 
L 286.912649 123.597474 
L 287.075058 133.783579 
L 287.237466 161.795368 
L 287.399874 151.609263 
L 287.562283 119.777684 
L 287.724691 155.429053 
L 287.8871 154.155789 
L 288.049508 118.504421 
L 288.211917 151.609263 
L 288.374325 157.975579 
L 288.536734 150.336 
L 288.699142 96.858947 
L 289.023959 149.062737 
L 289.348776 114.684632 
L 289.511185 137.603368 
L 289.673593 90.492632 
L 289.836002 140.149895 
L 289.99841 68.847158 
L 290.160819 110.864842 
L 290.323227 67.573895 
L 290.485636 137.603368 
L 290.648044 137.603368 
L 290.810452 121.050947 
L 290.972861 127.417263 
L 291.135269 79.033263 
L 291.460086 128.690526 
L 291.622495 143.969684 
L 291.784903 127.417263 
L 291.947312 152.882526 
L 292.10972 145.242947 
L 292.272129 94.312421 
L 292.434537 105.771789 
L 292.596946 147.789474 
L 292.759354 146.516211 
L 292.921763 100.678737 
L 293.084171 90.492632 
L 293.408988 143.969684 
L 293.571397 85.399579 
L 293.733805 127.417263 
L 294.058622 101.952 
L 294.221031 140.149895 
L 294.383439 58.661053 
L 294.545847 107.045053 
L 294.708256 61.207579 
L 294.870664 99.405474 
L 295.033073 109.591579 
L 295.195481 53.568 
L 295.35789 110.864842 
L 295.520298 95.585684 
L 295.682707 62.480842 
L 295.845115 53.568 
L 319.556753 53.568 
L 319.719161 59.934316 
L 319.88157 53.568 
L 320.043978 59.934316 
L 320.368795 105.771789 
L 320.531204 103.225263 
L 320.693612 114.684632 
L 320.856021 89.219368 
L 321.180838 124.870737 
L 321.505655 96.858947 
L 321.668063 131.237053 
L 321.99288 86.672842 
L 322.155289 91.765895 
L 322.317697 103.225263 
L 322.480106 93.039158 
L 322.642514 110.864842 
L 322.804922 108.318316 
L 322.967331 124.870737 
L 323.292148 112.138105 
L 323.454556 124.870737 
L 323.616965 103.225263 
L 323.941782 149.062737 
L 324.10419 152.882526 
L 324.266599 126.144 
L 324.429007 131.237053 
L 324.591416 151.609263 
L 324.753824 151.609263 
L 324.916233 133.783579 
L 325.078641 145.242947 
L 325.24105 131.237053 
L 325.565867 126.144 
L 325.728275 138.876632 
L 325.890684 123.597474 
L 326.053092 152.882526 
L 326.2155 136.330105 
L 326.540317 164.341895 
L 326.702726 149.062737 
L 326.865134 155.429053 
L 327.027543 143.969684 
L 327.189951 122.324211 
L 327.514768 150.336 
L 327.677177 140.149895 
L 328.001994 149.062737 
L 328.164402 138.876632 
L 328.326811 118.504421 
L 328.489219 129.963789 
L 328.651628 123.597474 
L 328.814036 103.225263 
L 328.976445 123.597474 
L 329.301262 80.306526 
L 329.46367 104.498526 
L 329.950895 73.940211 
L 330.113304 75.213474 
L 330.275712 53.568 
L 330.438121 75.213474 
L 330.600529 81.579789 
L 330.762938 70.120421 
L 330.925346 107.045053 
L 331.087755 117.231158 
L 331.250163 93.039158 
L 331.412572 128.690526 
L 331.57498 98.132211 
L 331.737389 126.144 
L 332.062206 143.969684 
L 332.224614 137.603368 
L 332.387023 118.504421 
L 332.71184 169.434947 
L 332.874248 156.702316 
L 333.036657 131.237053 
L 333.199065 160.522105 
L 333.361473 138.876632 
L 333.523882 132.510316 
L 333.68629 142.696421 
L 333.848699 131.237053 
L 334.011107 143.969684 
L 334.173516 146.516211 
L 334.498333 163.068632 
L 334.660741 142.696421 
L 334.82315 140.149895 
L 334.985558 143.969684 
L 335.147967 157.975579 
L 335.310375 145.242947 
L 335.472784 150.336 
L 335.797601 123.597474 
L 335.960009 119.777684 
L 336.122418 142.696421 
L 336.284826 132.510316 
L 336.447235 145.242947 
L 336.609643 146.516211 
L 336.772051 128.690526 
L 336.93446 150.336 
L 337.259277 124.870737 
L 337.421685 133.783579 
L 337.584094 119.777684 
L 337.746502 136.330105 
L 337.908911 129.963789 
L 338.071319 135.056842 
L 338.233728 150.336 
L 338.558545 133.783579 
L 338.720953 142.696421 
L 338.883362 140.149895 
L 339.208179 100.678737 
L 339.370587 141.423158 
L 339.532996 96.858947 
L 339.857813 110.864842 
L 340.020221 109.591579 
L 340.182629 143.969684 
L 340.345038 105.771789 
L 340.507446 127.417263 
L 340.669855 127.417263 
L 340.832263 140.149895 
L 340.994672 124.870737 
L 341.319489 157.975579 
L 341.481897 164.341895 
L 341.806714 132.510316 
L 341.969123 127.417263 
L 342.131531 141.423158 
L 342.29394 140.149895 
L 342.456348 159.248842 
L 342.618757 142.696421 
L 342.781165 163.068632 
L 342.943574 164.341895 
L 343.105982 154.155789 
L 343.268391 154.155789 
L 343.430799 142.696421 
L 343.755616 164.341895 
L 343.918024 165.615158 
L 344.080433 128.690526 
L 344.40525 141.423158 
L 344.730067 135.056842 
L 344.892475 151.609263 
L 345.217292 133.783579 
L 345.379701 157.975579 
L 345.542109 147.789474 
L 345.704518 165.615158 
L 345.866926 151.609263 
L 346.029335 161.795368 
L 346.191743 160.522105 
L 346.354152 132.510316 
L 346.51656 135.056842 
L 346.678969 163.068632 
L 346.841377 141.423158 
L 347.003786 137.603368 
L 347.166194 165.615158 
L 347.491011 119.777684 
L 347.653419 129.963789 
L 347.815828 165.615158 
L 347.978236 152.882526 
L 348.140645 163.068632 
L 348.303053 150.336 
L 348.465462 154.155789 
L 348.62787 149.062737 
L 348.790279 152.882526 
L 348.952687 128.690526 
L 349.115096 154.155789 
L 349.277504 119.777684 
L 349.602321 149.062737 
L 349.76473 137.603368 
L 349.927138 141.423158 
L 350.089547 159.248842 
L 350.414364 112.138105 
L 350.576772 145.242947 
L 350.73918 140.149895 
L 350.901589 123.597474 
L 351.063997 123.597474 
L 351.388814 157.975579 
L 351.551223 151.609263 
L 351.713631 124.870737 
L 351.87604 128.690526 
L 352.038448 151.609263 
L 352.200857 152.882526 
L 352.363265 129.963789 
L 352.525674 143.969684 
L 352.688082 137.603368 
L 352.850491 156.702316 
L 353.012899 147.789474 
L 353.175308 151.609263 
L 353.337716 95.585684 
L 353.662533 150.336 
L 353.824942 151.609263 
L 354.149759 140.149895 
L 354.312167 131.237053 
L 354.474575 152.882526 
L 354.636984 133.783579 
L 354.799392 157.975579 
L 354.961801 124.870737 
L 355.286618 151.609263 
L 355.449026 135.056842 
L 355.773843 154.155789 
L 356.09866 137.603368 
L 356.261069 129.963789 
L 356.585886 145.242947 
L 356.748294 128.690526 
L 356.910703 124.870737 
L 357.23552 152.882526 
L 357.397928 133.783579 
L 357.560337 150.336 
L 357.722745 131.237053 
L 358.047562 146.516211 
L 358.20997 135.056842 
L 358.372379 137.603368 
L 358.534787 156.702316 
L 358.697196 156.702316 
L 358.859604 136.330105 
L 359.022013 157.975579 
L 359.184421 133.783579 
L 359.34683 152.882526 
L 359.509238 132.510316 
L 359.834055 165.615158 
L 359.996464 127.417263 
L 360.158872 127.417263 
L 360.321281 159.248842 
L 360.483689 147.789474 
L 360.646098 115.957895 
L 360.808506 151.609263 
L 360.970915 121.050947 
L 361.133323 151.609263 
L 361.295732 154.155789 
L 361.45814 131.237053 
L 361.620548 129.963789 
L 361.782957 137.603368 
L 361.945365 136.330105 
L 362.107774 155.429053 
L 362.270182 141.423158 
L 362.432591 138.876632 
L 362.594999 118.504421 
L 362.919816 150.336 
L 363.082225 143.969684 
L 363.244633 145.242947 
L 363.407042 145.242947 
L 363.56945 118.504421 
L 363.731859 119.777684 
L 363.894267 152.882526 
L 364.056676 109.591579 
L 364.219084 112.138105 
L 364.381493 131.237053 
L 364.543901 123.597474 
L 364.70631 141.423158 
L 365.031126 100.678737 
L 365.193535 138.876632 
L 365.355943 113.411368 
L 365.518352 140.149895 
L 365.68076 147.789474 
L 365.843169 119.777684 
L 366.005577 143.969684 
L 366.167986 93.039158 
L 366.330394 128.690526 
L 366.492803 103.225263 
L 366.655211 141.423158 
L 366.81762 101.952 
L 367.142437 129.963789 
L 367.304845 132.510316 
L 367.467254 124.870737 
L 367.629662 99.405474 
L 367.792071 135.056842 
L 367.954479 128.690526 
L 368.116888 101.952 
L 368.279296 104.498526 
L 368.441704 122.324211 
L 368.604113 100.678737 
L 368.92893 129.963789 
L 369.091338 101.952 
L 369.253747 128.690526 
L 369.416155 133.783579 
L 369.578564 135.056842 
L 369.903381 103.225263 
L 370.065789 129.963789 
L 370.390606 81.579789 
L 370.553015 119.777684 
L 370.715423 104.498526 
L 370.877832 53.568 
L 371.04024 77.76 
L 371.202649 80.306526 
L 371.365057 57.387789 
L 371.527466 82.853053 
L 371.689874 61.207579 
L 371.852283 75.213474 
L 372.014691 53.568 
L 372.177099 53.568 
L 372.339508 80.306526 
L 372.501916 53.568 
L 372.664325 53.568 
L 372.826733 81.579789 
L 372.989142 54.841263 
L 373.15155 66.300632 
L 373.313959 53.568 
L 373.476367 85.399579 
L 373.638776 91.765895 
L 373.801184 118.504421 
L 373.963593 104.498526 
L 374.126001 129.963789 
L 374.28841 110.864842 
L 374.450818 112.138105 
L 374.613227 110.864842 
L 374.775635 143.969684 
L 374.938044 87.946105 
L 375.262861 143.969684 
L 375.425269 114.684632 
L 375.750086 132.510316 
L 376.074903 146.516211 
L 376.237311 123.597474 
L 376.562128 160.522105 
L 376.724537 156.702316 
L 376.886945 135.056842 
L 377.049354 151.609263 
L 377.211762 122.324211 
L 377.374171 132.510316 
L 377.536579 114.684632 
L 377.698988 142.696421 
L 377.861396 128.690526 
L 378.186213 150.336 
L 378.348622 126.144 
L 378.51103 147.789474 
L 378.673439 154.155789 
L 378.835847 152.882526 
L 378.998255 156.702316 
L 379.160664 136.330105 
L 379.323072 163.068632 
L 379.647889 135.056842 
L 379.810298 141.423158 
L 379.972706 138.876632 
L 380.135115 161.795368 
L 380.297523 132.510316 
L 380.459932 133.783579 
L 380.62234 166.888421 
L 380.784749 152.882526 
L 380.947157 152.882526 
L 381.109566 146.516211 
L 381.271974 150.336 
L 381.434383 160.522105 
L 381.596791 131.237053 
L 381.7592 154.155789 
L 381.921608 128.690526 
L 382.084017 151.609263 
L 382.246425 136.330105 
L 382.408834 168.161684 
L 382.571242 129.963789 
L 382.73365 151.609263 
L 382.896059 135.056842 
L 383.058467 155.429053 
L 383.220876 143.969684 
L 383.383284 163.068632 
L 383.545693 135.056842 
L 383.708101 137.603368 
L 383.87051 154.155789 
L 384.032918 131.237053 
L 384.195327 160.522105 
L 384.357735 117.231158 
L 384.520144 161.795368 
L 384.682552 118.504421 
L 384.844961 151.609263 
L 385.007369 132.510316 
L 385.169778 131.237053 
L 385.332186 165.615158 
L 385.494595 156.702316 
L 385.657003 136.330105 
L 385.819412 159.248842 
L 385.98182 151.609263 
L 386.144228 165.615158 
L 386.306637 166.888421 
L 386.469045 160.522105 
L 386.631454 149.062737 
L 386.793862 150.336 
L 386.956271 124.870737 
L 387.118679 128.690526 
L 387.281088 154.155789 
L 387.443496 151.609263 
L 387.605905 157.975579 
L 387.768313 156.702316 
L 388.09313 137.603368 
L 388.255539 132.510316 
L 388.417947 156.702316 
L 388.580356 152.882526 
L 388.742764 127.417263 
L 388.905173 161.795368 
L 389.067581 165.615158 
L 389.392398 151.609263 
L 389.554806 169.434947 
L 389.717215 131.237053 
L 389.879623 143.969684 
L 390.042032 135.056842 
L 390.20444 160.522105 
L 390.366849 145.242947 
L 390.529257 149.062737 
L 390.691666 135.056842 
L 390.854074 156.702316 
L 391.016483 156.702316 
L 391.178891 136.330105 
L 391.3413 129.963789 
L 391.503708 154.155789 
L 391.828525 123.597474 
L 391.990934 140.149895 
L 392.153342 135.056842 
L 392.315751 165.615158 
L 392.478159 161.795368 
L 392.640568 133.783579 
L 392.802976 137.603368 
L 393.127793 159.248842 
L 393.290201 175.801263 
L 393.45261 149.062737 
L 393.615018 160.522105 
L 393.777427 160.522105 
L 393.939835 141.423158 
L 394.102244 154.155789 
L 394.264652 135.056842 
L 394.427061 169.434947 
L 394.751878 141.423158 
L 394.914286 143.969684 
L 395.076695 150.336 
L 395.239103 163.068632 
L 395.401512 123.597474 
L 395.726329 149.062737 
L 395.888737 136.330105 
L 396.051146 135.056842 
L 396.375963 149.062737 
L 396.538371 135.056842 
L 396.700779 161.795368 
L 396.863188 152.882526 
L 397.025596 165.615158 
L 397.188005 166.888421 
L 397.350413 146.516211 
L 397.512822 141.423158 
L 397.67523 142.696421 
L 397.837639 168.161684 
L 398.000047 127.417263 
L 398.162456 151.609263 
L 398.324864 140.149895 
L 398.487273 142.696421 
L 398.487273 142.696421 
" style="fill:none;stroke:#1f77b4;stroke-linecap:square;stroke-width:1.5;"/>
   </g>
   <g id="patch_3">
    <path d="M 57.6 307.584 
L 57.6 41.472 
" style="fill:none;stroke:#000000;stroke-linecap:square;stroke-linejoin:miter;stroke-width:0.8;"/>
   </g>
   <g id="patch_4">
    <path d="M 414.72 307.584 
L 414.72 41.472 
" style="fill:none;stroke:#000000;stroke-linecap:square;stroke-linejoin:miter;stroke-width:0.8;"/>
   </g>
   <g id="patch_5">
    <path d="M 57.6 307.584 
L 414.72 307.584 
" style="fill:none;stroke:#000000;stroke-linecap:square;stroke-linejoin:miter;stroke-width:0.8;"/>
   </g>
   <g id="patch_6">
    <path d="M 57.6 41.472 
L 414.72 41.472 
" style="fill:none;stroke:#000000;stroke-linecap:square;stroke-linejoin:miter;stroke-width:0.8;"/>
   </g>
   <g id="legend_1">
    <g id="patch_7">
     <path d="M 260.545 302.584 
L 407.72 302.584 
Q 409.72 302.584 409.72 300.584 
L 409.72 286.905875 
Q 409.72 284.905875 407.72 284.905875 
L 260.545 284.905875 
Q 258.545 284.905875 258.545 286.905875 
L 258.545 300.584 
Q 258.545 302.584 260.545 302.584 
z
" style="fill:#ffffff;opacity:0.8;stroke:#cccccc;stroke-linejoin:miter;"/>
    </g>
    <g id="line2d_19">
     <path d="M 262.545 293.004312 
L 282.545 293.004312 
" style="fill:none;stroke:#1f77b4;stroke-linecap:square;stroke-width:1.5;"/>
    </g>
    <g id="line2d_20"/>
    <g id="text_20">
     <!-- Reward over trajectory -->
     <defs>
      <path d="M 2.984375 54.6875 
L 12.5 54.6875 
L 29.59375 8.796875 
L 46.6875 54.6875 
L 56.203125 54.6875 
L 35.6875 0 
L 23.484375 0 
z
" id="DejaVuSans-118"/>
      <path d="M 9.421875 54.6875 
L 18.40625 54.6875 
L 18.40625 -0.984375 
Q 18.40625 -11.421875 14.421875 -16.109375 
Q 10.453125 -20.796875 1.609375 -20.796875 
L -1.8125 -20.796875 
L -1.8125 -13.1875 
L 0.59375 -13.1875 
Q 5.71875 -13.1875 7.5625 -10.8125 
Q 9.421875 -8.453125 9.421875 -0.984375 
z
M 9.421875 75.984375 
L 18.40625 75.984375 
L 18.40625 64.59375 
L 9.421875 64.59375 
z
" id="DejaVuSans-106"/>
      <path d="M 48.78125 52.59375 
L 48.78125 44.1875 
Q 44.96875 46.296875 41.140625 47.34375 
Q 37.3125 48.390625 33.40625 48.390625 
Q 24.65625 48.390625 19.8125 42.84375 
Q 14.984375 37.3125 14.984375 27.296875 
Q 14.984375 17.28125 19.8125 11.734375 
Q 24.65625 6.203125 33.40625 6.203125 
Q 37.3125 6.203125 41.140625 7.25 
Q 44.96875 8.296875 48.78125 10.40625 
L 48.78125 2.09375 
Q 45.015625 0.34375 40.984375 -0.53125 
Q 36.96875 -1.421875 32.421875 -1.421875 
Q 20.0625 -1.421875 12.78125 6.34375 
Q 5.515625 14.109375 5.515625 27.296875 
Q 5.515625 40.671875 12.859375 48.328125 
Q 20.21875 56 33.015625 56 
Q 37.15625 56 41.109375 55.140625 
Q 45.0625 54.296875 48.78125 52.59375 
z
" id="DejaVuSans-99"/>
      <path d="M 32.171875 -5.078125 
Q 28.375 -14.84375 24.75 -17.8125 
Q 21.140625 -20.796875 15.09375 -20.796875 
L 7.90625 -20.796875 
L 7.90625 -13.28125 
L 13.1875 -13.28125 
Q 16.890625 -13.28125 18.9375 -11.515625 
Q 21 -9.765625 23.484375 -3.21875 
L 25.09375 0.875 
L 2.984375 54.6875 
L 12.5 54.6875 
L 29.59375 11.921875 
L 46.6875 54.6875 
L 56.203125 54.6875 
z
" id="DejaVuSans-121"/>
     </defs>
     <g transform="translate(290.545 296.504312)scale(0.1 -0.1)">
      <use xlink:href="#DejaVuSans-82"/>
      <use x="69.419922" xlink:href="#DejaVuSans-101"/>
      <use x="130.943359" xlink:href="#DejaVuSans-119"/>
      <use x="212.730469" xlink:href="#DejaVuSans-97"/>
      <use x="274.009766" xlink:href="#DejaVuSans-114"/>
      <use x="315.107422" xlink:href="#DejaVuSans-100"/>
      <use x="378.583984" xlink:href="#DejaVuSans-32"/>
      <use x="410.371094" xlink:href="#DejaVuSans-111"/>
      <use x="471.552734" xlink:href="#DejaVuSans-118"/>
      <use x="530.732422" xlink:href="#DejaVuSans-101"/>
      <use x="592.255859" xlink:href="#DejaVuSans-114"/>
      <use x="633.369141" xlink:href="#DejaVuSans-32"/>
      <use x="665.15625" xlink:href="#DejaVuSans-116"/>
      <use x="704.365234" xlink:href="#DejaVuSans-114"/>
      <use x="745.478516" xlink:href="#DejaVuSans-97"/>
      <use x="806.757812" xlink:href="#DejaVuSans-106"/>
      <use x="834.541016" xlink:href="#DejaVuSans-101"/>
      <use x="896.064453" xlink:href="#DejaVuSans-99"/>
      <use x="951.044922" xlink:href="#DejaVuSans-116"/>
      <use x="990.253906" xlink:href="#DejaVuSans-111"/>
      <use x="1051.435547" xlink:href="#DejaVuSans-114"/>
      <use x="1092.548828" xlink:href="#DejaVuSans-121"/>
     </g>
    </g>
   </g>
  </g>
 </g>
 <defs>
  <clipPath id="p543d3ec92d">
   <rect height="266.112" width="357.12" x="57.6" y="41.472"/>
  </clipPath>
 </defs>
</svg>
